<mxfile host="app.diagrams.net" agent="Mozilla/5.0 (Windows NT 10.0; Win64; x64) AppleWebKit/537.36 (KHTML, like Gecko) Chrome/129.0.0.0 Safari/537.36 Edg/129.0.0.0" version="24.7.17">
  <diagram name="第 1 页" id="2nvVZ5Da_WEQvPmn2Eli">
    <mxGraphModel dx="1011" dy="523" grid="0" gridSize="10" guides="1" tooltips="1" connect="1" arrows="1" fold="1" page="1" pageScale="1" pageWidth="827" pageHeight="1169" math="0" shadow="0">
      <root>
        <mxCell id="0" />
        <mxCell id="1" parent="0" />
        <mxCell id="RtyG-etpF97lnTowgnw--1" value="&lt;b&gt;&lt;i&gt;Remove(key)&lt;/i&gt;&lt;/b&gt;" style="text;html=1;align=center;verticalAlign=middle;whiteSpace=wrap;rounded=0;fillColor=#dae8fc;strokeColor=#6c8ebf;" vertex="1" parent="1">
          <mxGeometry x="20" y="90" width="110" height="50" as="geometry" />
        </mxCell>
        <mxCell id="RtyG-etpF97lnTowgnw--17" style="edgeStyle=orthogonalEdgeStyle;rounded=0;orthogonalLoop=1;jettySize=auto;html=1;exitX=0.25;exitY=1;exitDx=0;exitDy=0;entryX=0;entryY=0;entryDx=0;entryDy=0;" edge="1" parent="1" source="RtyG-etpF97lnTowgnw--2" target="RtyG-etpF97lnTowgnw--3">
          <mxGeometry relative="1" as="geometry" />
        </mxCell>
        <mxCell id="RtyG-etpF97lnTowgnw--2" value="&lt;i&gt;GetLeafWritePageGuard(key)&lt;/i&gt; 然后删除指定key：" style="text;html=1;align=center;verticalAlign=middle;whiteSpace=wrap;rounded=0;fillColor=#d5e8d4;strokeColor=#82b366;" vertex="1" parent="1">
          <mxGeometry x="20" y="150" width="290" height="30" as="geometry" />
        </mxCell>
        <mxCell id="RtyG-etpF97lnTowgnw--18" style="edgeStyle=orthogonalEdgeStyle;rounded=0;orthogonalLoop=1;jettySize=auto;html=1;exitX=0;exitY=0.5;exitDx=0;exitDy=0;entryX=0;entryY=0.5;entryDx=0;entryDy=0;" edge="1" parent="1" source="RtyG-etpF97lnTowgnw--3" target="RtyG-etpF97lnTowgnw--4">
          <mxGeometry relative="1" as="geometry" />
        </mxCell>
        <mxCell id="RtyG-etpF97lnTowgnw--3" value="IF 节点&lt;i&gt;SizeInvariantCheck&lt;/i&gt;通过：&lt;i&gt;return;&lt;/i&gt;" style="text;html=1;align=center;verticalAlign=middle;whiteSpace=wrap;rounded=0;fillColor=#d5e8d4;strokeColor=#82b366;" vertex="1" parent="1">
          <mxGeometry x="60" y="210" width="220" height="30" as="geometry" />
        </mxCell>
        <mxCell id="RtyG-etpF97lnTowgnw--20" style="edgeStyle=orthogonalEdgeStyle;rounded=0;orthogonalLoop=1;jettySize=auto;html=1;exitX=0;exitY=0.5;exitDx=0;exitDy=0;entryX=0;entryY=0.5;entryDx=0;entryDy=0;" edge="1" parent="1" source="RtyG-etpF97lnTowgnw--4" target="RtyG-etpF97lnTowgnw--6">
          <mxGeometry relative="1" as="geometry" />
        </mxCell>
        <mxCell id="RtyG-etpF97lnTowgnw--4" value="elif&amp;nbsp; 从左兄弟移一个过来" style="text;html=1;align=center;verticalAlign=middle;whiteSpace=wrap;rounded=0;fillColor=#d5e8d4;strokeColor=#82b366;" vertex="1" parent="1">
          <mxGeometry x="60" y="250" width="140" height="30" as="geometry" />
        </mxCell>
        <mxCell id="RtyG-etpF97lnTowgnw--21" style="edgeStyle=orthogonalEdgeStyle;rounded=0;orthogonalLoop=1;jettySize=auto;html=1;exitX=0;exitY=0.5;exitDx=0;exitDy=0;entryX=0;entryY=0.5;entryDx=0;entryDy=0;" edge="1" parent="1" source="RtyG-etpF97lnTowgnw--6" target="RtyG-etpF97lnTowgnw--7">
          <mxGeometry relative="1" as="geometry" />
        </mxCell>
        <mxCell id="RtyG-etpF97lnTowgnw--6" value="elif&amp;nbsp; 从右兄弟移一个过来" style="text;html=1;align=center;verticalAlign=middle;whiteSpace=wrap;rounded=0;fillColor=#d5e8d4;strokeColor=#82b366;" vertex="1" parent="1">
          <mxGeometry x="60" y="290" width="140" height="30" as="geometry" />
        </mxCell>
        <mxCell id="RtyG-etpF97lnTowgnw--22" style="edgeStyle=orthogonalEdgeStyle;rounded=0;orthogonalLoop=1;jettySize=auto;html=1;exitX=0;exitY=0.5;exitDx=0;exitDy=0;entryX=0;entryY=0.5;entryDx=0;entryDy=0;" edge="1" parent="1" source="RtyG-etpF97lnTowgnw--7" target="RtyG-etpF97lnTowgnw--8">
          <mxGeometry relative="1" as="geometry" />
        </mxCell>
        <mxCell id="RtyG-etpF97lnTowgnw--7" value="elif&amp;nbsp; 跟左兄弟合并" style="text;html=1;align=center;verticalAlign=middle;whiteSpace=wrap;rounded=0;fillColor=#d5e8d4;strokeColor=#82b366;" vertex="1" parent="1">
          <mxGeometry x="60" y="330" width="100" height="30" as="geometry" />
        </mxCell>
        <mxCell id="RtyG-etpF97lnTowgnw--8" value="elif&amp;nbsp; 跟右兄弟合并" style="text;html=1;align=center;verticalAlign=middle;whiteSpace=wrap;rounded=0;fillColor=#d5e8d4;strokeColor=#82b366;" vertex="1" parent="1">
          <mxGeometry x="60" y="370" width="100" height="30" as="geometry" />
        </mxCell>
        <mxCell id="RtyG-etpF97lnTowgnw--9" value="" style="shape=curlyBracket;whiteSpace=wrap;html=1;rounded=1;flipH=1;labelPosition=right;verticalLabelPosition=middle;align=left;verticalAlign=middle;" vertex="1" parent="1">
          <mxGeometry x="200" y="260" width="20" height="50" as="geometry" />
        </mxCell>
        <mxCell id="RtyG-etpF97lnTowgnw--10" value="" style="shape=curlyBracket;whiteSpace=wrap;html=1;rounded=1;flipH=1;labelPosition=right;verticalLabelPosition=middle;align=left;verticalAlign=middle;" vertex="1" parent="1">
          <mxGeometry x="160" y="340" width="20" height="50" as="geometry" />
        </mxCell>
        <mxCell id="RtyG-etpF97lnTowgnw--11" value="便宜的操作，但降低并发性" style="text;html=1;align=center;verticalAlign=middle;whiteSpace=wrap;rounded=0;" vertex="1" parent="1">
          <mxGeometry x="220" y="270" width="160" height="30" as="geometry" />
        </mxCell>
        <mxCell id="RtyG-etpF97lnTowgnw--12" value="昂贵的操作，如果先完全处理左兄弟，可以提高并发性" style="text;html=1;align=center;verticalAlign=middle;whiteSpace=wrap;rounded=0;" vertex="1" parent="1">
          <mxGeometry x="180" y="350" width="170" height="30" as="geometry" />
        </mxCell>
        <mxCell id="RtyG-etpF97lnTowgnw--13" value="" style="endArrow=classic;html=1;rounded=0;entryX=0;entryY=0.75;entryDx=0;entryDy=0;" edge="1" parent="1" target="RtyG-etpF97lnTowgnw--15">
          <mxGeometry width="50" height="50" relative="1" as="geometry">
            <mxPoint x="280" y="220" as="sourcePoint" />
            <mxPoint x="310" y="200" as="targetPoint" />
          </mxGeometry>
        </mxCell>
        <mxCell id="RtyG-etpF97lnTowgnw--15" value="？：没有更新父节点" style="text;html=1;align=center;verticalAlign=middle;whiteSpace=wrap;rounded=0;" vertex="1" parent="1">
          <mxGeometry x="310" y="170" width="110" height="30" as="geometry" />
        </mxCell>
        <mxCell id="RtyG-etpF97lnTowgnw--23" value="" style="rounded=0;whiteSpace=wrap;html=1;fillColor=none;strokeWidth=2;" vertex="1" parent="1">
          <mxGeometry x="20" y="195" width="360" height="235" as="geometry" />
        </mxCell>
        <mxCell id="RtyG-etpF97lnTowgnw--24" value="FixUnderflowLeaf" style="text;html=1;align=center;verticalAlign=middle;whiteSpace=wrap;rounded=0;fillColor=#dae8fc;strokeColor=#6c8ebf;" vertex="1" parent="1">
          <mxGeometry x="20" y="430" width="100" height="30" as="geometry" />
        </mxCell>
        <mxCell id="RtyG-etpF97lnTowgnw--25" value="&lt;b&gt;&lt;i&gt;FixUnderflowLeaf&lt;/i&gt;&lt;/b&gt;" style="text;html=1;align=center;verticalAlign=middle;whiteSpace=wrap;rounded=0;fillColor=#dae8fc;strokeColor=#6c8ebf;" vertex="1" parent="1">
          <mxGeometry x="560" y="90" width="120" height="50" as="geometry" />
        </mxCell>
        <mxCell id="RtyG-etpF97lnTowgnw--51" style="edgeStyle=orthogonalEdgeStyle;rounded=0;orthogonalLoop=1;jettySize=auto;html=1;exitX=0;exitY=1;exitDx=0;exitDy=0;entryX=0;entryY=0.5;entryDx=0;entryDy=0;" edge="1" parent="1" source="RtyG-etpF97lnTowgnw--26" target="RtyG-etpF97lnTowgnw--27">
          <mxGeometry relative="1" as="geometry" />
        </mxCell>
        <mxCell id="RtyG-etpF97lnTowgnw--26" value="处理该节点为&lt;i&gt;root_page&lt;/i&gt;的情况" style="text;html=1;align=center;verticalAlign=middle;whiteSpace=wrap;rounded=0;fillColor=#d5e8d4;strokeColor=#82b366;" vertex="1" parent="1">
          <mxGeometry x="560" y="170" width="170" height="35" as="geometry" />
        </mxCell>
        <mxCell id="RtyG-etpF97lnTowgnw--52" style="edgeStyle=orthogonalEdgeStyle;rounded=0;orthogonalLoop=1;jettySize=auto;html=1;exitX=0;exitY=1;exitDx=0;exitDy=0;entryX=0;entryY=0;entryDx=0;entryDy=0;" edge="1" parent="1" source="RtyG-etpF97lnTowgnw--27" target="RtyG-etpF97lnTowgnw--28">
          <mxGeometry relative="1" as="geometry" />
        </mxCell>
        <mxCell id="RtyG-etpF97lnTowgnw--27" value="获取父节点与左右兄弟节点的PageGuard" style="text;html=1;align=center;verticalAlign=middle;whiteSpace=wrap;rounded=0;fillColor=#d5e8d4;strokeColor=#82b366;" vertex="1" parent="1">
          <mxGeometry x="560" y="230" width="225" height="30" as="geometry" />
        </mxCell>
        <mxCell id="RtyG-etpF97lnTowgnw--53" style="edgeStyle=orthogonalEdgeStyle;rounded=0;orthogonalLoop=1;jettySize=auto;html=1;exitX=0;exitY=1;exitDx=0;exitDy=0;entryX=0;entryY=0;entryDx=0;entryDy=0;" edge="1" parent="1" source="RtyG-etpF97lnTowgnw--28" target="RtyG-etpF97lnTowgnw--29">
          <mxGeometry relative="1" as="geometry" />
        </mxCell>
        <mxCell id="RtyG-etpF97lnTowgnw--28" value="尝试获取左兄弟队尾kv，然后更新父节点" style="text;html=1;align=center;verticalAlign=middle;whiteSpace=wrap;rounded=0;fillColor=#d5e8d4;strokeColor=#82b366;" vertex="1" parent="1">
          <mxGeometry x="560" y="280" width="225" height="30" as="geometry" />
        </mxCell>
        <mxCell id="RtyG-etpF97lnTowgnw--54" style="edgeStyle=orthogonalEdgeStyle;rounded=0;orthogonalLoop=1;jettySize=auto;html=1;exitX=0;exitY=1;exitDx=0;exitDy=0;entryX=0;entryY=0;entryDx=0;entryDy=0;" edge="1" parent="1" source="RtyG-etpF97lnTowgnw--29" target="RtyG-etpF97lnTowgnw--33">
          <mxGeometry relative="1" as="geometry" />
        </mxCell>
        <mxCell id="RtyG-etpF97lnTowgnw--29" value="尝试获取右兄弟队头kv，然后更新父节点" style="text;html=1;align=center;verticalAlign=middle;whiteSpace=wrap;rounded=0;fillColor=#d5e8d4;strokeColor=#82b366;" vertex="1" parent="1">
          <mxGeometry x="560" y="330" width="225" height="30" as="geometry" />
        </mxCell>
        <mxCell id="RtyG-etpF97lnTowgnw--30" value="" style="shape=curlyBracket;whiteSpace=wrap;html=1;rounded=1;labelPosition=left;verticalLabelPosition=middle;align=right;verticalAlign=middle;" vertex="1" parent="1">
          <mxGeometry x="540" y="288.75" width="20" height="67.5" as="geometry" />
        </mxCell>
        <mxCell id="RtyG-etpF97lnTowgnw--32" value="不会影响父节点大小" style="text;html=1;align=center;verticalAlign=middle;whiteSpace=wrap;rounded=0;" vertex="1" parent="1">
          <mxGeometry x="430" y="307.5" width="120" height="30" as="geometry" />
        </mxCell>
        <mxCell id="RtyG-etpF97lnTowgnw--33" value="尝试与左兄弟合并，递归更新父节点" style="text;html=1;align=center;verticalAlign=middle;whiteSpace=wrap;rounded=0;fillColor=#d5e8d4;strokeColor=#82b366;" vertex="1" parent="1">
          <mxGeometry x="560" y="376" width="212" height="30" as="geometry" />
        </mxCell>
        <mxCell id="RtyG-etpF97lnTowgnw--35" value="" style="shape=image;verticalLabelPosition=bottom;labelBackgroundColor=default;verticalAlign=top;aspect=fixed;imageAspect=0;image=data:image/png,iVBORw0KGgoAAAANSUhEUgAAAt0AAAHKCAYAAADfDPdMAAAAAXNSR0IArs4c6QAAAARnQU1BAACxjwv8YQUAAAAJcEhZcwAADsMAAA7DAcdvqGQAAGyASURBVHhe7d15mFTlue/9m6GZZ5lBQEBAZBQCRFDAAVEccEt2CCaRaM4RczwJnnO8An+8BP0jcI77usR3m0jOjgb3G9jshAREVMQEwaAgIoMgk4wtkwwNDc3UTG/9nlpP291Uz1Xdtaq+H67n6qaqeniq16p1173udT/VrkUYAKBKXbx40S5cuGC//e1vbebMmfbMM8/YlClTrE6dOm6IXq71mN27d9usWbNswYIF7vbevXu7x44ZM8b9HwCQfAi6ASAJrFy50pYuXWqffPKJrVmzxvr3729Dhgyx0aNHuyHnz593j/n444+tSZMm1qBBA3d7ixYt3GO7dOni/g8ASD4E3QCQBJS5nj59umVnZwe3RP3iF7+wyZMnu89zcnJszpw5LijXbePGjXO3AwCSH0E3ACSBooLuvn37Wr9+/dznNWvWtE6dOlmPHj3cbV27dnW3AwCSX/XgIwCgCih7feDAAcvKyrKrV68Gt35r06ZN9uabb9rixYtt7dq11rZtW5fhJuAGgHAh6AaAKrRx40aX5Vatti6SLIrqunWxpGq3AQDhQ9ANAFVAme2tW7fa8uXLbd68efbZZ5/ZpUuXgnuv165dO9elRBdNAgDCh6AbAKqAz3AvWrTITp06FdxaNGXC1UpQF1ECAMKHoBsAKpEulNyxY4etWrXKlixZYhs2bHCtAEuyZcsWV9f90UcfuQy5MuUAgPAg6AaASrR9+3abPXt2qTPc+anmWxlvZciVKQcAhAdBNwBUAgXY69atsw8++MDefvvtUme481OHV33N6dOnLTc3N7gVABAGBN0AUAn27dvnMtzz58+3I0eOBLeWjZaDVxcTLYzje3cDAMKBxXEAoBKsWLHCBcvqu10aHTt2dAvh5Kdl3ydOnMhKlAAQQgTdAFAJyhp0P/HEEy7Azs+vSNm+ffvgFgBAWBB0A0ACHT9+3F08qaD79ddfd2UmsXTu3Nkt756RkeH+P378eDcAAKmBoBsAEkgXT6qWW0H3wYMHi1x1csKECTZp0iRr2LCh+3/r1q3dAACkBoJuAEgA9ePevHmzC7Z18eSXX34Z3BN14403usx2vXr13P8feughl9muX7+++z8AILUQdANAAmgBmxdffNEF3WoXePHixeCeqMcee8zVePv67EaNGlmTJk2senWaSgFAKiLoBoA40kqRWrhGK07OmzfPrT4prVq1skGDBlmzZs3c/4cNG2Zjx4615s2bu/8DAFIbQTcAxJEy3FoxUku8KwD3Ge7BgwfbtGnTrGfPnu7/av+nzLY6kgAAUh9BNwDEUWZmplviff369cEtUarf1sWSHTp0CG4BAKQTgm4AiKMrV664DiWXLl0KbolSRrtu3bpWo0aN4BYAQDoh6AYAAAASjMvkAQAAgAQj6AYAAAASjKAbAAAASDBquoGQWbNmjVtwpajlxIF006lTJxsxYoT7CADJiqAbCBn1gJ4+fbpbZhyA2fDhw90+ocAbAJIVQTcQMj7o7tcvOxJkBDeW0759ZitWmJ2r1t1uGjjCGt7QOrin6mVuXmN7162wAf0vunnWqRPcUQ5+ntm5Ha1zZJ5N2yZfRjRd5nt4x0bbE5ln31uj229F5nnkSHSerVsTdANIfgTdQMj4oHvy5OzIx+DGclLAou9xrNojdvek6da2e7/gnqq3au4s+/vs6fb0U9F5NmkS3FEOfp6ZOcPtnsg8FYgmm3SZ7+eL59jfIvN84p/3V3ieGzdG53nqFEE3gOTHhZQAAABAghF0AwAAAAlG0A0AAAAkGEE3AAAAkGAE3QAAAECCEXQDAAAACUbQDQAAACQYQTeACrl65YplHz1oh3ZsLHYc27fDLp7LCb4qHHJOHiswhzPHjwT3XO/ypVzLOri3wONjDT3m0oXzwVcBANIFQTeACrmce8F2frzULexS3Ph0wWw7eWhf8FXh8PUXawrMQSspFuXCmVP2xfvzCzw+1tBjzpwoOngHAKQmgm4AFXLl8iX7Ztdm27rirWLHns8+tHOnjgdflZzOZWfZka8252Wl967/qMAcju3bHjzyepcunLOvN39qO1e/b4d3bnJvMDSO7N5iuz79W9730GMu5GQHXwUASBcE3QAQOLBlrb3/r1NtyUuT3fjyw4XBPaXXqGU7Gzj2KXvw+VlufPf7z9oNN3YN7gUApCuCbgDlpkyuSjBq1q5jNw0YXuxo13Og1WnYJPjK1FOzVh1r1bWXdR4wwjoP/Ha07d4vpecNACgdgm4A5aYa51XzZlmdBk3snknTix2Dx02ypm07BV+ZnNpEAuThP5mS9zt3u310cE/JFFj3uW+8m2eLTj2CWwEAiCLoBlBuynTv37DKso8eCG6JZnwVdObP9mq0v3Wg1U3yjG/D5q2tU/9heb9zWcpCMmrXsdZde7l51m/aPLj1W3UaNLZ2PQe4bHjtug2CWwEA6YKgG0CFXLp43rYuX5hXB738/75oX29ZG9wL74YOXe3OHz/v6r1V9w0ASC8E3QAq5NrVq3b62CHXsUPjwNZ1tvvTv9mXHy5yY/dnH0buPxw8OvVdOJNtmZs/zZv/vg2rXNeWyxcv5D1P6nBycNt6yz1/LvgqAECqI+gGEFfqV/3likV5fanVn7u4VnupRj248/fr/vztOXntA/Vc+Nu3RgJyPVcAgPRA0A2g3HTh4W0PPVFg3DL8YauRUSsv8535xWpXfrJ1xeJiV3RMFRm161rTdje550ZDdeG16jWw3PNn7fj+nXnPy6kjmXblcm7wVQCAVEfQDaDcdLFh/g4lGkMfn2xtu/ULHmGWEwm0N70/39aGcEXK8mjQvLX1vW983vMx4KGJSd+1BQCQeATdAMpN3UgUUOYf6lzSbeho63X3Y9a49Y1uxcqzJ4+5emYtGZ/qambUsgbNWuY9H8p29xwx1m6+/T6r26hp8CgAQLoh6AYQV+pXrSBTGW/6VZsLvAc8PNFlvBve0Dq4FQCQbgi6AcRVjZo1XZ/qlp17Wp9R37e+90+wZu07B/emH/XvVv9vDdW6AwDSE0E3gIRQxrvvaFZoBABACLoBlFnmF2ts1dxZBcaaP79m3+zZGjzCLPdcju1eu9x1L2nTra/1e+Bxa9yyfXBvYpw+bbZsmdncuWa7dwc3JtiFnNP21eplec/Dxnfn2omvi/7hyvor+3/zd0dZ7fqNglsBAKmOoBtAme1ZtyKv37QfK/8w0w7v2Bg8ItqvW11L1I9aFxMq492kbWK7eJw6ZbZokdns2WbbK6k1uOtLHpmjfx5K6kuurL+eC9W962wAACA9EHQDKLMOfYa4CyUVTF/IyXYj58Q3tnnZn+xvkcBTY91bb1jzDjfbbQ/+2Frf3Mdq12/o6r0T6epVs3PnzM6cMbt0KbixDA5F3jSseGNm3hx2frI0uCdKbzb8fXqcHl+7QSOXtdbFkqrbPp75lW145//Le5wf+tqeI8da/zE/cs9Lrbr1rHp1XoIBIF3wig+gzHx/bn30LudetK0r3rK//+4FNz5fPCea4f7eJGt5UzhqupWpV8bez+GrT94P7ona+/nKvPt8Zl9tE2+NBNO+W4vefHzx/n/mPc4PH3Srzl3BOQAgvRB0Ayg3Bd13P/2rmCOMLQP1JmH4T6bEnE/hocfp8Z5KRfrcNz7mYzVcJpyWgQCQtgi6AZRbrBUp/RgWCborO8Otao169aIjN7fsZSZtI0H0iCenxJxP4aHH6fGeMt7KYsd6rIYvPwEApCeCbgApo0kTs7Fjo2Pjxsq9oBIAgOIQdAMp5No1s/Pno63zlOlNN40amY0aFR1bt1Zu68DKkO5/XwAIM4JuIIVcuGC2dKnZrFnRTC9SC39fAAivatcigs8BhMCsSMQ1ffp0mzgx2yZPDm4MKAOqgEwLxOi+ceOCO4qwZk308Seq3esufGzVuWdwT9Vbt+gN+3jeLJvwz2fcXJTFLi1luTWvAweiz4O+Vv8/dG6wDZ0w2bU8TDalmW9p/77+75qM8938twX28dxZ9tiYg2X+uxbm/865ucPdPjFixLfddAAg2RB0AyHjg+5OnbKt37fX8TkqOVAGNDPT3H1duwZ3FOHIkejjL1S70V0UWLdRs+Ceqnd0z1bXkq/bzZfcXGrVCu4ohays6LxycqLPg75W/z97uZXrOJKMXURKM9/S/n393zUZ53vi611unl06nS3z37Uw/3fu3JmgG0DyI+gGQuaNN95wgfdppT0jTp06ZdnZ2da0aVNrVJG0YQrKjUSpen6uXr1qTZo0sTp16gT3pIbLly+7+Wmeml89tW1JQ0OGDLHJkye7jwCQrAi6gZDZunWrbdy40QVasmjRInvrrbfsBz/4gY3SFYTIk5mZ6Z6fc+fO2dixY61Hj3D1DS/J8ePH3fw0T83vtttuC+5JL61bt7Z+/fq5jwCQrAi6gZA6cuSIGwq6NJ5//nl7/PHHg3shenOisgNlg1Ox/ODQoUM2e/ZsN8/8QXeDBg1cAKqPAIDkQPcSIKRWrFjhAknRR06tpx+VlCjY1vBvMDTmzJlj+/btCx4FAEgGBN1AyBw7dsw2b95s27dvd4GVMpoKurp06RI8AulCNdzKbg8dOtRq1KjhtgeNXbt22ZYtW9zHHF1NCgCocgTdQMisWbPGZs6c6T5PxZIJlJ3eeI0fPz4v061tQmdCyHgDQPKoEXmBjp6fBhAK7733nv3bv/2bKyeZNGmSNW/ePLgHhSnLq7rn6tWru1IMUQeTVOtiovm0b9/eXSiqUbNmTZfpPnr0qNWqVcv9X1lxfQ4AqBpkugGkLJ8BTrfMb6dOnWzixIl5854/f7676BYAUHUIuoGQOHDggK1atcouXLjgstwKrFA8de/o1auXe64UbOtiQ3UySXXK6quFnoY+V2vBdevWuQBcQ9cDaDsCAFQegm4gJFauXGlTp061rKwsmzZtmo0ePTq4B4ita9eu9uyzz9qgQYNs3rx5bgEZDX2u7QgAUHmo6QaSnBY++fTTT23btm129uxZGzx4sN1zzz3WrFnyLNme7FTbrRU8Vdes+uYrV65Yw4YNU662uzDVcGs70UJKqm0XZb419/Pnz7sVLXVNgDqfAAASi8VxgCS3ePFitwCKyiTUGrBjx46uVplAqfQUdKumWSUWWkioTZs27iLU7t27B49IbdnZ2W7+CrRFZUp6Hm6//Xa3qJKCcABAYlFeAiQpZbiXLVtmO3fudNlKBYh9+/a1du3aEXCXkWq7VWqhNysKPvfu3ZsXgKaDxo0bu+3H13n37NnTOnfu7JbHVzcc9X2/dOlS8GgAQCIQdANJau3atfbiiy+6BU5Ul/voo49a3bp1g3uB8lONt64L0BsRbWMLFy5MqzchAFAVCLqBJKMMt0pKFGyrpGTgwIEuOFK2W/2mgYpS5l99vbV93Xnnna7m+09/+pN7owcASAyO4ECSUTs31XCrxZ16LauO2y/sAsSTSk2mTJnitq9Zs2bZ0qVLg3sAAPFG9xIgSajWePny5bZ161arVq2a3Xbbbe5CN3WXIMMdH+pNrY4d6lqibia6wLJFixZpu1Kj5q16bz0PKi/R/3WmRf3MNUR18ACAiqN7CZAk1FFCfbjVWUO9lJWFVHBIwB0/CrgVeL/77rsus3vTTTfZjBkzrEOHDsEj0tPFixfd8/L666+7Gm9PWXANAEDFkekGqphWmlSXEmUWldVWH27Vcd9www0u44340RsYZXO/+uor++CDD6x+/fp23333pX35jnqX6w2earv10Xc50e3qD6+PejMIACg/UmhAFVPt9pw5c9zy3KrfHj9+PKf0USWGDBliysP4ITNnzrQ1a9a4zwEA5UfQDVSRY8eO2YIFC1xZibpIPPjgg27hG2Vf6cONqlC7dm2X9fdDQfhjjz3mttXXXnvNXW8AACgfgm6gihw8eNBeffVV1zFi9OjRrhe3Fr4BkoW2S/XzzsrKctcb0FIQAMqPCymBSqYuJSolUWtA6dSpk40YMcJ9ROXQc6+/gf4Wovpl/Q3SvbY7Fl1gqeeqcImJnisF5T169AhuAQAUh6AbqGS6YFL1sqrlVgcNBXuoGosWLXKdYvQ30N+ENz5FO3XqlHuu3nzzTfd/lUJp+9V1CACAklFeAgAoUd26dW3ChAn28ssvu6FyKJWbvPTSS7Z58+bgUQCAohB0A5Xk6tWrdvbsWTt37pxrW9ewYUPXig0IA11kOWrUKJft1vjnf/5n279/vy1cuNC1FTxz5ozrgw4AiI2gG6gkOj0/f/58V9KgGuJJkyZRzoDQUk232luqvEQlU7Nnz3YlUwCA2Ai6gQRThlvZ7UOHDtn7779vq1evtr59+9rjjz9u7du3Dx6FqpCRkWGNGjVyZxy0FLr+TlzmUjp63h566CG7//778zLeu3btcs8jGW8AuB4XUgIJdvz4cZfdXrdunXXt2tW6devmMt3pvvR4MsjMzHR1yQoWlaXVSqCqW65Xr17wCJRE7QSV6VYPbz2PWthJ2W+6mgBAQWS6gQRRhlsBtwIRBdxbtmyxPn362MMPP0zAnST0dxg3bpwLFNUvXQsVaSl0lF6zZs3srrvuckMtGNVaUC0Z9SZG4+jRozynABBB0A0kiPobK8OtJd5Vu62Lz8j+IVXpjcvEiRNd+0X19fZLyes6Bt8PHQDSGUE3EGfKcOuU+549e/Iy3CorUUaVDDdSlTLeWixHS8f7BaA0VL6zc+dOd9aHWm8A6YygG4iz8+fPu4vKXnzxRRdsaxntQYMGBfcCqU3bvHp4a+EcDW378+bNc0NvRgEgXRF0A3GkDN+mTZtsx44ddvjwYXfRpHobk+FObsrS9uzZ0xo0aOAuCDx48KBduXIluBdl0bx5cxs2bJi7mFKjd+/erj+9st1ffPGFu3iVGm8A6ajGdBXdAYiLJUuW2B/+8AdXw61yErUGbNy4cXAvkpVWW1SG9uLFi/aXv/zF3ab6ey1ihIqpU6eO2x90BkgXq2oRHT3X9evXDx4BAOmBTDcQB8pwq22aujYow92xY0cbM2YMGe6Q0N9JZySUpV22bJlb1vzSpUvBvaiINm3a2MiRI91ZH5WX+Iy39hcNzioASBcE3UAcKIOn7iQyY8YMGz58uPscQJRqu3V9g7Lcr776at5y8rr+QVlwAEh1BN1ABRw4cMB1aPDLX+s0uupZWWkSKEgtBdXZRGU7KjnxtA+pPzpLyANIdQTdQAVoIRB/WYQ+qkcxgKJpNVZluLW/aDRp0sR1OdGbVwBIZVxICZTD7t27bfXq1a7TxYkTJ1yw/eCDD7oAAuGlmuOcnBxr0aKF67ihnuutWrUK7kU8qEOMzgTprJDGyZMnXU/7GjVq2KlTp9xjVFsPAKmGoBsoh/fee89l5xSc/ff//t+tV69eLphAuKnTjDrOqORBK4lmZGTY0KFDg3uRCGrXqOz3tm3bbPbs2S7gHjhwYHAvAKQOykuAMlCP4Xfeecf279/vujJ0797dBQyqV0X4KQBUX2m1CvT9upFYeuOq51y13sp8qxPQokWL3NkkAEglBN1AGajF2cyZM91pcNWlatlrABWnEi1/4lUfdb0EAKQSgm6gDFTzqx7OWlFPKxi2a9cuuAdARehskc4a+bF3715X4qOxYMEC27VrV/BIAAgngm4AQNLwGW+dTdJHDV0/obNMABBmXEgJlIKybMuXL3c13crIqRf3rbfe6i60Q+o5ffq0+9vqwkr9zYW6/cqhHt7qAnT8+HG3UqXqvNu2bes6yajeW/X2qr0HgLAh6AZKQQG3sm064P/85z+3/v37u24l1apVCx6BVKKL+9RBQxfz/Z//83/yFnZB5VHp1ne/+12X+dYqlurjvXjxYheEq7QLAMKG8hKgGAq63njjDdu+fbsLuu68807r0qWLy7RVr87uk6oaNWpkHTp0sJo1a7pONb5/NCqP9jHfy7tbt25u39M+qH1x7ty5dDcBEDpEDUAxdIBXhltLVE+cONHGjh1bYAlrAImnchPte9oHtS+qn7f2TQAIE8pLgBiURdMCODt27HD1pLfffrsrKVEGlJKS9HHx4kVX1603Wv5CPq2miMqlfU419jrzoDpvfZ6dnW2ff/65ay2oxYy0b2oAQLIi6AZi+Oijj+zXv/61Wwp82rRpdscdd1jdunWDe5EuVNqgXuyqJ546daoLuFVjjKqhfVAL6ajmXiUmr7zyir3//vt29OhR69Onj/t7AUCyIugG8tGpa62Gp1PXWiFPAZaWeKekJL0p6F65cqXbHgi6k4MuZNa+qb+Hgm3tuxoqRdEAgGRDTTeQjw7aWoxDpQSqIR0/fjwHcCDJqJuM9k3ljDQUeOuNkfZd7cMAkIwIuoEIH2zrwK0DuA7o9GUGwkGZbl1k6YPv+fPnu57eAJBMCLqR1nRRluq2VU6iA/W6devsnnvuIehGASov0gWVogv4dIElkocPurXvah/+61//anv27HH7thbVAYBkQE030trhw4ddDff69etdDfddd93l6kTpgoD81DVDC7RcuHDB1XYrCOeiveSj3vnNmzd33U1UIqZs90033cRF0ACSAplupCWf4dbCJ+p+sGXLFre0+7hx42gJh+toUZbJkye7z1977TXbsGGD+xzJRfuu9uG+ffva6tWr3b596NAht7iRxrlz5+zatWvBowGgchF0Iy0pA6ZyEmW5+/Xr505Nk7kEUoPOWk2aNMnt27pWw19wqf1dZysAoCoQdCOtXL582Y4fP27btm2zDz/80GW4Bw4cSIYbSCFdunSxxx9/3O3bWjxHwbaG+u9r4ausrCxqvQFUOoJupBWdYvYHYGXBlA1TVgxA6tG+rbIgn+nW2axZs2bZ0qVLyXgDqHQE3UgrOTk5tmrVKjd0YdzDDz9sHTp0CO4Fiqee7TojojMmmZmZbntC8tK+rbNYKh/T0D6/du1ad+G0upso4w0AlYWgGwBKSX2glTnVGZOZM2e6DhkID53dmjJlinvz5DPeAFBZCLqRFnJzc11mcteuXW756O7du+f1XQZKS0GbMqfKcM+bN89tTwgPZbonTJjg2gju2LHDvWnKP1hQB0AiEXQjLfhabnUyUF0ntdxA+lILSJ/x9vXeGlrNEgAShaAbKU39uA8ePGhffPGF7dy509VwduvWzUaOHGlt2rQJHgUgnai7yZgxY6xjx462b9++vKGVaTdv3mzHjh0LHgkA8UPQjZR2/vx5W7hwob366qvu1PK0adNs0KBBwb0A0tnw4cNdbbcfMnXqVLfqKADEG8vAI2Wp3lZ1mspyqwb3nnvucRfCqaYbKC/fuUSrG/re7lomnu0qfBo1auTKzfxQtluvF7pdatWqxd8VQNwQdCNl6UK3f//3f3e12+PHj3cfOYCioqpXr27Nmzd3ZUrr1q2zv/3tb9a6dWt3JgXhphpv/R1VZvLXv/7VtRzk7wogXigvQcpRtkoXRB04cMBlIHXQ1IVTCoyAisq/TekCXa14SNeL1KBs97Bhw/J6sSv45u8LIF4IupFy1HtXvZSbNWtmM2bMcHWbAFAadevWtUcffdRd/6EStRdffNEtqAMAFUXQjZShrJTaAiorpYzVLbfcYr1797YWLVoEjwCA4tWoUcPatWtnffv2dSVEevOuzkd6bdH48MMP7fDhw8GjAaD0CLqRMlRS4i9R0Eed/geA8qhTp46NHTvWLR+vkjW9pmjMnj3bvcEHgLLiQkqE3u7du2316tUuG3XhwgXXoUSdSurXrx88Aog/9YDXWRVlRtXtQh1y6tWrZw0bNgwegTDTBbNatVYXXyuzffLkSXehpW7Tfepeo7+1/uYAUBrVrkUEnwOh9MYbb7geu//0T//kslI6MGoAiXT16lW32JLqfrXS6ZYtW1wd8KhRo4JHIBXogkpdMKs3VeL/3vrb6+/NGTUApUV5CUJr69atri3goUOH3II3/fr1c7XcBNyoDL51oLri6AyLuuUo+4nUom41+jv7Xt6q89brTefOnV1nE124TXcTAKVB0I3Q0gFv5syZLgulbiUqKwGARNKbLPX9V723riNR1ls13wBQEoJuhI5O7y5YsCAvw33bbbe5rBMZbgCJplUqW7Zs6TLevv+/EgAKvjWWL1/uSk8AoDCCboSOeuaqd66vqVRPXfXWBYDKoraCzz77rI0ePTpvbQCN119/3Q4ePBg8CgC+RfcShIZquN9++23LzMx0BzytHKdeugq4q1WrFjwKqFy6oFLXozdt2tRdbKftU51z1N8ZqUs1/cp6+8+1ZLyuK9G6AKrvP3v2rPu8du3a7jEAQPcShIYumlQNt0pKlFHq0qWL66VLwI2qpKBbF1Lu2bPHnYFRe7kpU6bYmDFjgkcglam7if7++ijLli1z3ZQUgGs7UDAOAEJ5CUIjNzfXTp8+7Q5u6p1LhhvJQFlO9WrWNqlt9MyZM3bp0qXgXqQ6dTfR3963Ku3Tp4/9+Mc/dnXfameqVSx1sTcAEHQDABAnPXr0sEmTJrn2grqwkqAbgEfQjaSnJZe19LLacmnxG7XqolMJgGSm8hKVwfngWxdbqgwFQPoi6EbSI+gGEDYE3QAK40JKJC314164cKGdPHnSBdk6iKkvbqNGjYJHAMlD1xusXLnStm3b5soJ1M1E7Sy7du0aPALpSF2X1MdbHU20XejCW1GrQQ0A6YNMN5KOLpRU6zUfdO/fv9/uv/9+GzVqFAE3kpa2zYceeshtpwq05s6d6wItpLeePXvak08+6doH/uUvf8lbREeBuIJwst9A+iDTjaSjYFunYhWwqNfxLbfc4jLcOmgByW7jxo2m5Q9UDqXWcSNGjAjuQTrbsGGDC7QvXrzo/q+AW4OMN5A+yHQjaVy5ciUvw71kyRLbsmWLy3Are0jAjbCoUaOGWxxHbQSVxdQ27Xs4I33179/fnnnmmbyVK7XGQP6Mtw/GAaQuMt1IGlrJTwvgHDlyxF18pNZbWgiHlf0QJllZWS7brRITvYFs3bq1u/hX2zPgaRvR0BkRjQkTJrjSJACpi0w3qpwWFDl69Kjt3LnTZX0UdKucRKdcCbgRNtpm77rrLhs2bJgLqlQqpW0ayE8Xhqsbky4SX7FihX3xxRd5AbhK63SGBEBqIdONKqcMtxaQUNCtTg/KCOqApAwhEFYKuFVGIKrxprYbsfiMt86K+Atvmzdv7s6O6I0bgNRBphtVRnWuPsO9du1a27NnT16Gm4AbQDrwGe9atWq5jLfGqlWr3DUtZLyB1EKmG1VGAffrr79uX331lTvw9O7d2w1leYCwI9ONsti8ebPt3r3bfa5AW9uPer+PHz/elSsBCD8y3ah0quFWSYlqGBVwnz171gXbI0eOJOBGyqhbt64rl9JZG9V0q3zg/Pnzwb1AQXoNVEmJhoJsdb/R2T9dkLtjxw7Lzs4OHgkgrGpMVwoGqEQnTpywBQsW2DvvvGMDBgywMWPGuDruhg0bBo8Awi8jI8Patm3rgiddIKwyqm7durmVKoHiqO2kEhDt2rWz7du322effebevLVv3z54BIAwItONSqMabh1APvnkE5fB0f9vu+02l+Fu06ZN8CggNTRu3NhdCKc3lNruVadLthKloTdqem285557XPB9+PBht7jOunXr7Pjx48GjAIQNQTcqjRYKUZcSLQihPtyqd6V3MQDEpnaCvuRENd6zZ892b+AAhBNBNyqNz3Tr4KGDiTqVUMMNALFp1UolJgYOHOheK3WBpbqa+C4nei3VapYAwoGgGwCAJKZ6bnUx8RlvXYqlobOGWkwHQDhwISUS7tKlS+4K/E8//dROnjzpLgYaOnSo3XTTTcEjgNSl7KRav6lOt3r16q57jy4aVhYTKA318G7ZsqXVr1/f9e7WxejafjR0BvHKlStsU0AI0KcbCXfmzBlXi7hw4UKbMGGCa4elzA1LvCMdKOhWy0BdBDdv3jzr0qWLTZo0ybp37x48AigdtZzUtuQvyFW5nq6T0YXobFNA8qO8BAmlg8J7773nMtzKbPfs2dMNAm6kiwYNGuT161Z/+r1799KvG+Wi3u96HdViYhq9evVy25Yy3R9//LE7m3ju3Lng0QCSDUE3EkoX+8yaNctdODllyhR3oAAAVJy6QGkJeb2uKuM9f/58LqwEkhhBNxJCF/voIh+dCvVZGa24RoYbAOLDn0Xxr7FaVGfx4sWuJ7zKmgAkF4JuJIQy3P4aXWW41R4QABB/aiuomm4F3kp2KOtNxhtIPnQvQVypS4mWd1eGWyUlI0aMsMGDB1vt2rWDRwDpSYtD+c4l6maiz3XmR50pgIrIyMhw25U6megiy5o1a9rRo0ddT2+dddS21qJFC5cJB1B1CLoRV2+//ba98MILLuPiV5ykjRUQLQW49dZb3UWUvvZW+0mjRo2CRwAV07hxY+vbt68LuJXxXrJkiTvrqIBcC+yQ/ACqFkE34mLDhg3ulKYy3B07dnQZbr3IE3ADUco+KvjZs2ePvfvuuy7YvvPOO90ZISAelPHWdnX16lWrVq2aey1W4kO36yykMt66+BJA1aCmG3GxZs0amzlzpsve6X2cgm4AQOXzZxr1WqyhN3bqIrV06dLgEQCqAkE3KkTZk9dee82OHTtmjz32mN1xxx3uBZ4MNwBUDV0noIy3Xos1BgwYYI8//rjLeCv4VpIEQOUj6EaFrF271qZOnWpZWVk2bdo0e/TRR4N7AADJYPjw4TZjxgx34e5zzz1HxhuoIiwDj3LRFfG6QMe3pVJLQJWUkOEGiqdVWrXv6PoHUSmA9h1qu5FoynAXDrj1mq3tj7auQOJxISXKRS/cquFWoKBNSMsR60IxAMVr3ry5u8h437597lS/Wgkq4CHoRqK1b9/eBdh606cuUytXrrR169a5BXYIuoHEI+hGmShL98c//jFvpUm9gOvqeAJuoGz82SJ1kyDTjcrmtzsF23rjpyy42lq2bt06eASAeKOmG6Vy6dIlO3PmjH3xxRf2+9//3vWBffLJJ23s2LGUlABxcPHiRbewiUq28g8FREA8KdhWvk1DNd7a9n7729+6rLdfuAlA/FHTjVLZvHmzKyk5efKkuxinT58+LkPCwh5A+WjxEgU9PgDav3+/28e0eE5+o0ePdgNIBAXcynJ//vnn7oJ4dT7R9jZo0KDgEQDihUw3SmX37t02d+5c1yJw3LhxNmrUKAJuoBz8WaNz5865RUyUVVR28ZNPPnHZxldeeaXAoL0bEkmrVKq7yVNPPeWC7j/96U/ujKa2SW2rAOKHoBsAKpGui5g9e7ZbwVXlI6rt9guXUEqCqqIyQZULTpw4Me8iX22rAOKHoDvNXb582Y4fP26HDh1ymbfCFAToosmcnBzXdaFly5ZcNAmUg/Yl7WerV6+2P/zhD/bBBx+4jPe2bdvc/z/66CNqaVFllPHWGczx48e7bfXdd9+1TZs2uQBcQ9subwqBiqGmO80p4FbGLTMz02U5brvttuCeKGU6dL8ep6vde/bs6Wr9dJU7gNLTvjRv3jxbtWqVy27r+ojS+NWvfuVqvoHKoASLts8tW7bYrl273Gu/dOjQwSZMmOC6VQEoHzLdacpnuBUI6LT2ggUL3JXrPuPtM9y6XzWlqu+766673CDgBspO+9PixYvtww8/LHXADVQ2vb4PGzbMHnzwQfe6r7aWGrrmQMcDbcdkvIHyoU93mlLA/R//8R/2b//2b+4U4rFjx+zrr792QyUkyna88cYb7oIavQA/8MAD1rlzZ9oDAuWkU/R6g/vNN98Et5SOuptoAJVJZYTt2rVzr//qZqIFdLSYjjLgbdu2dccJAGVDpjtNKZu9fv16V1eqQFsZjbVr17o6PmU0/HLBymzodOLgwYOtcePGwVcDKCtlELt37+7KtHjzimRXr14997qvskONoUOHujOkKjnxpSeF21sCKB5BNwrQqcP58+e7HsLKzAGIDwXbkyZNcheqseofwkbbrDqb6KyLyk10jNDxAkDpUV6SZq5cuWKHDx92mYp//OMftnPnzuCeKC2UcPDgQZf9VhZDHUtUVtK0aVOXncvIyAgeCaAslDm86aabrEaNGm4f1Nkl7WPq1V0cykuQDPT6r4spRWdFFXC3atXKbcP6XJ136tat67ZvALERdKcZlZUok/2v//qv9uWXX9rZs2eDe2LT4xWY63FdunRxq1ECKL+GDRvarbfe6oKTHTt2lLgPEnQjmejNY7du3Vy51MKFC91F+H4lVZVPcaE9UDTKS9KIavD8leiffvppqS7oys7OdhdaKjOuiysBVIzOHg0cONBdK0FtN8KmSZMm1q9fPzfyB9jKdutaIF0HRHcTIDaC7jSibMTMmTNZVhoAUCH+GgWdLNfQ/1Xn7VdaBXA9gu40okz3xx9/7Gq2S0sdS/r27Wu9evXitCEQR7owbciQIe6UvFYDBMJEGW+dsfHlT/7Mjc9463ijbieF6QJ9f8ZVC0UdOHAguAdIfQTdKJZ6sz777LP21FNPuZ6tAOJDK7tOmzbNrfLHtRIIO78965jx6quvunrvWC0FdcZ18uTJbkydOtX1/gbSBRdSpgHV2Cmj8Pe///26biVFueGGG9yS8Pfcc49bGEHZODqXAPGjTg8tWrRwHYXU+UEjKyvrum4mXEiJMPDbs6790dnU6tWru8+1PetN5VdffeWOQ0uWLHHHIl1TpEXa6tev775WxxfWgkCqI+hOA7q6/F/+5V9s27ZtrhtJafTs2dN++tOfukUR2rdvb7Vq1QruARBPCjRUvqUAZePGjS74zo+gG2Hit+fMzExX461gWhddvv322+44pIvyfcceveFUOYpKTnScUXIHSGWUl6QBvaipA4myCkVp1KiROz34yCOPuKHstupNdaqQWm4gcZQF1JtclW/F6nGsM1W6OG337t3BLUDy8tvzLbfc4vrSnzx50t577z1Xw63jUP6uWcqCHzp0yLZu3erO8gCpjqAbjg74qtueNWuWG6rjVsANoGr5GlhqXxEmw4cPtxkzZrgg/MUXX3TbMZDuCLpTmE5V6/SePhZF9XRDhw61cePGuSvR1fZJQ50V6CEMVB5lB3VR5Xe+850C10+oV/7+/fvdCpZAWKgriWq4169fb3v27HHbcVFUWqXHqhRSXU+AVEXQncJ0Ok8l+/pYFLV9Ut22+q2q5ROAqqFyrilTprjSLt7wIuzUNlDrQijDXdJiOerrrRIqnWUtLkkEhB0XUqYwvdi99dZbdvHixeAWcxdEKrOtQFsH+WHDhtndd9/tAm66kwBVR726dRGauj7olPylS5cK9NT311kAyUz12bpoUmPt2rWlWsn42rVrrr2gHqvtXkG6zsJqPwBSCZnuNKMMmg7eeq+loVpRXVkOIDn4jDcdSxBGylQrY12aDHdhPuM9e/ZsdwExkGoIulPQhg0b7LXXXrtuufc777zTfvazn9ntt9/uyko01LWEdoBA8vAZb0pMEEa6AF/XCKkbVlmPLT7jrRrwv/71rzZ37ly69iClEHSnIF9LV7iWWxluZdA4RQ0ASASdOdUZ1Ipcm6A2t/PnzyfjjZRDTXcK+vjjj+3999933UgmTpyYt7jGvffe67IQNWvWDB4JIJmpk5Coewk13QgD9ZrX2RpdI3TjjTe664b8MciXTGl7Lo4y3qrtbtq0qTtDy0X+SBXVIhv3teBzpAjV0/l6bd5TAeGmffiFF16wl19+2e3TQJj57bk0+vbt6x6vC/+BVECmO0VpSV1lGHymDEB4aT9WllD7NRB2fnvWmZvLly8X6NJTmDqaaPjrkIAwI9MNAAAqnbqVKO/3yiuvBLfEptUt9ThfngKEFZluAABQ6apVq2YNGzZ0ZSS6ZkEdT9S95NChQ8EjopQN121Hjx51vbvp342wItMNAACqXGZmpuu8NW/ePPf/K1euuF7fCrpFC7upA9fIkSNdZxRdtAmECZluAABQ5ZT5btCggd16662ulKR79+6uBEUZbrl69aodP37crbLcunVrt84EECahynTrXa9OPfl3vQCiq4xW1kIqOthpHwQQpRas2v/C3opVoYD27dzc3OCWqrd582aX+X733XeDW6IeeOABl/Hu3bt3cAuQGFrgSft39erxWdYmVEG3Tj3ptBPN8oFvqZ1WZbXUWrZsWd6pXwDmekhr/wt7L+lz5865fXvVqlXBLVUvKyvLLSv/9ddfB7dEqf+3FuGhthuJpi5w2r+bN28e3FIxoQq6tfOpT+2aNStNnYMqmtyL7M+Wk1PN6jRsYrXrJ89pqiuXc+3CmVORT85HXlQqPs9TkW+VnW1Wt1HTpJqnly7zvXrlsp0/HdnoIvPU9luvXnBHOfl5/upXv3JX9lcG9YB/7rnnrHFjc3OoiAsXovug1ajr9sEaNcu2ZHQiXTx72m2TDRpcc9tkRWie+ltduVbb6jZullTz9NJlvrnnc+x8dpabp7bfiiSvlBDW9jtkSGp01lAZh46vf/zjm+65adAguKOcTp+Obge16jV0+3e1asmxAPa1a1fdtp577ozb1is6z5yc6Dxr1kmueXrpNF/N8+LZbLf9VrTyyM/zhz98wu3f8Wq/HMqg+8iRlZF3HsowBHeUkxJ2K/5R13qOGGs3f3dUcGvVO3Uk07Z+uMhqnN1gEyZUfJ6LFpm99ZZZ39E/SKp5euky37Onjtum9+a5eWr7ve224I5y8vOsiqD7kUeUYQ9uLCedsNI+eKV+f+s5cqw1ad0huKfqfbV6mW1dschG3HHebZMVoXnqb5V1sbv1vX9CUs3TS5f57tuwyjYtnefmqe23Im98MzOj22/r1qkVdC9Z8qZ7boYNC+4op2XLottBu7732q2R/TujTgWzDHFy6cI5+zJyvDm46QO3rVd0njoxoHk2vTm55uml03wVR+z99C23/Y6q4KHfz/PBBwm6I5+tjDwJFnmRi95eXvpWv3u9sd09aboNezx5Vno7tGOj/X32dMs4+VYkyKn4PPVcaQGwMf/r5aSap5cu8z15aJ8teWmym6d+x4oGrX6eVRF0R36k+/kVsWJFdB+81PQRtw+27d4vuKfqrZo7y22TTz+V7bbJitA89Vxl5gy3B5+flVTz9NJlvp8vnuP2Qc1Tv2NFztZEDkdu+zVLraB7xYo33XMzcWJwRzlpO9L36TXmF27/rtuwgqfG4uT8mVNuW9/yzivud6zoPOfMic6z/dDkmqeXTvP9W2Se6+a/4H6/6L5Zfn6eI0bEN+hOrvMgAAAAQAoi6AYAAAASjKAbAAAASDCC7go6e/K4ZX6xxvasWxFznMjcFTwyNZQ0Xz9UvwwAQEkuXbxgR/duzzt+HPhynTvWFEX36TH5jzmxRrIff8sz79Icf/3gOJx8CLor6Ni+7fbxvFmugD/W2PnJ0uCRqaGk+fqhHR4AgJKo1Zs6T/jjx6cLZrtjTVF0nx6T/5gTayT78bc88y7N8dcPjsPJh6C7nAq/0977+cqYw9+fKu841fZO77S181/OvRDcapZ99IDt37gqb968wwbKJ/ubA661XXleOy6ey7Eju7bkfa06A6l7AZBslIX226kbn397HD24dZ071hRF9+kx3+zeUuA4lHPiSIHj0ImvkyvTfeXy5QrPW8df//iSBsfh5EPQXU7+nfYX789371aLkrl5TUq+42zTvZ8NnTDZ7pk03Y1ut4+2mrUqZylyIJXpNWPlH2aWK1uVc/yIe03yX7t+8RwOvEhKykL77VTZ28ORN4hl1aJTjwLHIfX7T+bjkN4gxGPeCC+C7jJShltZqIPb17uVnm64sasLOHuOeMSNtj36W/WaNYNHm50+ejCl3nE2bN7GLTjTfdgD1mXQXdZ54Ag39DxUr/HtvFF5tm/fbosWLbLdu3cHt6Q21UBqsYfixu7PPrTTxw4HX5HcTh3OdIvT+N9958fvud+/NNmq3PPn7OC29Xlfu+2jt23Xmg/yvlaZ7uKSAkhuWpp9/fr19uGHH9rhw+HYnkurZu26rsezhlYOrpFR+pVLdRzq/J2R1uOOMQWOQwrCk/k4VK1atXLNW69lek3QQnKd+g/LizcKj1Zde7nHt+jU3f1fzwcqJjMz05YtW2abN2+2S5cuBbeWH0F3GekAqAUW9O5UK1mqOXz+kezvtCuqpTILj0+2WyNz1xKwqHorVqxwzfvXrFkT3JLa9q5b4RZ7KG6UVBuZTBQYfxwsTqOx8+OlBU6ZF8fXhOaf99GQzBsl04I1ekM9e/Zs9+Y6lXQbOjrvuKljSlkWUdJxaPC4SdbnvvGhOg4pNijPvP2ZdcUdAx6emPf1hYcSgHJT5A2I/q83IqgYLcqoReGWLl1qFy6U7nW5OATdZVSzdp3Iu+zW1rzDzdb65t5uh8k/OvUbZrcMf9i948yf8U4VdRo2tlade1qTNh2sZox36M3ad+YddiX75ptvbNOmTbZ8+XJ3gI41UilTdubEETu8c1Ox4/i+HXYhJzv4iuRWu14Da9SqvTVt28mNuo2bWbXqpXtp1mtMvabN8762UYu2VivJlqFG+eXm5rpM29q1a122Lda+rfHpp59adnY4tnevcct2ecdNHVPqNmoW3FMyHYeUzW3W7qYij0M6G9uqa+/gluRQvUaNcs1bS61r347GHX3yvr7waBT53tLwhtbu/4pVUDEnT560bdu22UcffWSLFy+Ouf9plPZMM0F3GenANuChie4dtjbswlTrPOInU9K2xvnG3kN4h11F9E5cGe9YIxUzZanCXR/x+OQC2arSvnYoy6ezTv5rlf3jDW/qOXLkiM2fPz/mvq2h+/QYROk4NFzH4aHRzG/YhTWzn0p0JnnmzJkx9z+N0p5pJuguI2WlbujQ1b3DzqhTN7j1W/UaN3MZcL3jrF69hrW86Ra77aEn3IE1legK7M1/W+BKbTQObFlrVy7n2tmTx9wpMF0sott16hyV49ChQy7jHWusXr3aFi5caHPmzIk5lCXPysoKvlNy0rakbUq0TxU3dLapSesO7rHJTq8Zynjlz1bptaM0lOXTWSf/tc07dbc6DRoH9yJV6LT2vn37Yu7bGitXrrT//M//jLlvayhTrqx5qtH1EPmPQ7reyh+Hvtm12V3fkArHoZIy+9/s2Wob35vnjsNIjOPHj9uWLVti7n8a77zzTsx9T0MZcp2xEoLuBLuxzxB3VXWqZX4P7YzWofqrsBVkX754wb4OurX4kWpdW8IqFTJl2pa0TYnvVlDUIOOLdKKzWDqbFWvf1ohXPWqycX2r8x2Htq5YlHccWlHODkBh9PUX0Y5Hyd6XPJWV9kwzQXecKQOsd5y553Ks1z3jrOvge6J1mil2SkilNR16D8m7atx3L7l49oydOrw/b9A5ITnoqutjx47Z/v37Y45169bZggULYr5L10iGTJm2JW1TOpOig6jG/k2fWO6Fc3k1zX40atnWatWlthnp4fz58+6ajVj7tsaqVavsj3/8Y8x9e968ebZ169bgO4VLvSbNCxyHfPcSHYeyj3ydNsehC2dPR+aZ6Y7LOtOXamfWw0C137H2PQ1lyJcsWeL2N4LuOPv6y7X2/r9OtfOns+zu/zrNbh35aHBPamnfa5DdFZnfg8/PcuPWux61mjHKbRAOaof00ksv2eTJk2MOlabowJ4MlM1Z8tJkN7SvqTUegKKp/GTq1Kkx923drvvDqHXX3gWOQ/3un5DWx6GbBgx3z4PvYoLkcPDgQXv99dfd/kbQHSeqqVq36A3b/tESy8k6ateuXrXaDRrFrPtOBaorqxOZn+832qHv7Tbkez+zm267M3gEKkrJpzfeMJs1K/aIZ4fAy5cvW05OjuuAEGt88skn9tvf/jbv4KyfHe/fobQu5150nUk0tK+px/WqubPc0D6ofRGoqIsXzZYtu36/82PuXLMDBzQOuLNEaisW7/FG5AUgHllonaU6ffp0zH376NGjrjPKa6+95n5W5GFu3nrtSfbW/zUyMgoch9r1HJh3HCpL3+9UUbNWbfc8ZNRmobqS9t+Shr5W+0I8XI3Eg+q5r/2NoDtOdMpbq0v5mrJ0o1N8rmtLilwtngw2bozu/NOnxx4rKrFM0V+5rbo10c+u7N8hFu1rynz7PtWs8IZ4UQn0okXX73d+zJ5ttm+fxj532jhWLWdFhwJv9QlOJNV6a7/W/q2fdepUdN567Qlbw6O87mGR45Da+yJ9lbT/ljT0tdoX4o2gu4JOfL3bZdeyDuyxm4eMskH/9F9t6IRfuNM8NTNq26HtG1wGLvOL1F64RO+wdYW1VttCfHTtajZunNnEibFHvziW7XXu3NkmTJhgv/jFL2KOZ555xn7yk5/YoEGD3OP1s+P9O5REb+y0b+Uf/oJJn/nO/uaAO9u08d25bt9MJJ9JUUYwpCWxKEatWmbDhl2/3/nx8MNmrVtrtLbRo0dHbpsY9zEu8gLQVS8EFdQvsqNOmjQp5r6t8fTTT7v9Xz+rQYPovPXa0yEcDYDyuDOwwXGoWuRfqtNZvTV/fs2V2F2+FHlBQp6S9t+Shr5W+0I8NG/e3B588EG3rxF0V9CRXZvt7//3xcgBfpd9d/yzBWqcVVqyJ7IzvPMvz3FVMcpM8e20aQVPeeUfkeN83PTu3duef/75yPeNfZrbj0cfjV6joJ8d+W9cf4eSKHvl9y8/7vv5DOsceYPrnT990jYt/Q/76M2X3L6ZSCpxnzfP7MUXzdbSqSvl1K1rkUD0+v3Oj8ju4t4YK1B99tlnI7fF3mcqMqZFXgD8G92KGD58uM2YMSPmz/BD9+tnNWsWnbdeeyIvC0hiahH4/v871a1Km45n2ItT0v5b0tDXal+Ih3bt2tlTTz0V+b6zCLrjxZWX5Gtd5EeqBNtH9263T/88O29eX0Z28vPFXBGuTP/dT/8q5VolhlWrVq3s+9//vv3qV7+KOcaPH+8ydmHjllW+fbTLerfp1je4FUgv3bt3d9nqWPu2hjLxdeqEv9zi5KF9ru+2Pw5tWjq/2OPQjb0Hp8VxSPMc/pNfcgFlFbrvvvti7nsaOsvUo0e0hS1Bd5xo6emP571if//dCwXGV5+8Hzwi3NQP9dMFs/PmpXfWxbVh0ouc+iUTdCcHBdQKrGPVjWqENejWBUPKgGtFR9pkIV3pgK4De6x9WyPVgm5/HPri/fnFHodUkpYOxyHNM5VW4Awj7WOx9j0Ngu4KKPxOu6SdPlWobja6DO333Yp3RWX29VyQ4a4apX2nnYq0NHLPkWPJeCMlpeKZqp0fL807buhYkv8C6DMnjrhjq79fx1wde9WDf8DDE91xqMENra5bHMcPHYf0RjzZMr+XdOF3OeZdmFbY1LVirqwkl7KSyjB48GD75S9/GXP/0xgyZEjwyOKlZNCtNTzU6kU1l9euBTfGiS7U2vK3BW5n0dAOJApEixs6DZ5ourArOzsx8255UyTo/t4k6z/mR27Zaf/mwz8PfqidGxnuylW7dm1r3LixPfLIIzHfZWtUZtB99arZuXPRffDSpeDGCnAtAs9ku9PI+Ydu92rXb+QuZB746E9d27Da9RtajZoZwb3J7fKlXLuQc/rbeV08b9ci/zwdVP19eh7yz1utqHLPn8u7X4uCXLn87ZN+9cplu3guJ+/+3PNn3dcgHKpXr2716tWzm2++2X70ox/F3Lc1KjPovnzZLCcnOq5cCW4sB13v5I8bPrj0x0vXlShybPX365irY68PunUcat7hZjtz/EiRx6Fhjz8X18yv5n3mjNnZs+Wf95XI71WeeRd2dM9W+/ytN9wCYYot0uXC0aqQkZFhDRs2tJEjR7qe9rH2P420Drp9qzV1N4v3yrfa6W+L7PR3RwLLsozKCELVM3nmzMTM21PGe+iEyTHnqMHprco3YsSIMu30iRbvlmOZwZLOvi2gH7rdU2ZL7TrXRw5i2kfDtAy8O2s0b1bevHTQzX9RlA6s/j49D7Hm7e9XCZiyf54O6HpO/P2qgU2HM3OpokmTJjZ27NikOlOlNolz5kTHkSPBjeWgY0WsY0isoWOu9mvPn3mN9VgNfe94twzUvNUmcv788s9bv1NF5u2plC7/cTgR80WUOv9oUZt4lWilZNDtFxXROh7K/sZT41btrfc94yLvoieXaXTok/iAaMMGs9deS8y8vRtu7GIDxz4Zc44a+TtJoHIo2NaLQv/+/YNbqla8F9dQVmfT0nkuoNR1E35kbvokL4N7+tgh2712uX21Zpk1a9/Z+j3wuNtWw0Cdj5TRUtZLQ9eHZNSum5f9OrZ3e959eh70fHi553Js34ZVeffv+Mc7du7Uibyv1f27Pv1b3v27P1vubkM4NGrUyEaNGmWPP/64demSHNuzFgRasCA6jh0LbiwHHStiHUNiDR1zdez1tG9rH4/1WA19b7WxjSfNWwsivf12+eet36ki8/Zade5Z4DiciPkiqmfPnvbkk0+6DkA6q1xR1HQDSGr+IqGbCp0tUkbYZ3B9hlvZn7BdUFk4a1Xc0POg58NTLfutI8fGfGys0fe+8e5rAACVj6AbQFJr26O/DfneM+6iqCZtOuaNk4f3u9aVGiq5aHFTD5f9URYoTApnrYobeh70fHhaAvvm746K+dhY45bhD7mvAQBUPoJuAKGg6yJ0kW6soU4FbbvRMhAAkLwIugGEQtvu/VznglhDtY83dKj4ctkAACQKQTcAAACQYATdAAAAQIIRdAMAAAAJVu1aRPB50tu4caPrR5yTs9ImTTIbODC4o5DFi6NN7EeONPe4hg2DOwp56SWzBYsauCb76vmZLI7v2+F6Etc8vcKef77oeRamHqKa98MPF5y3bvvd78zu+PH/Sqp5euWdb1GSdb7qJf2PN19y89TfR9tnRfh5aglaLY5TGWbNmmXPPfecPf10dBuL5dCh6O+2bp25v2dR89T92gcvNxrh9sHmnboH91S9je/OddvkuLE5bg6xaHU6/f6ah54L7Xex6H49H0fOD7A7f/x8Us3TK818SyuZ57tt5WL7KLIPap7FHRtKY8eO6N+/QYPhbv/TIlVhdurUKXd8XbbszVJtz6JtpXsRf15/POpyxwS3f2uV2GSgVVu1re/+xzz3+xc1z8L861XbttH93c/bxxst+yXXPL3yzrcoyTxfzXPr0t+5v8/jFTz0+3mOGvWE2787dbp+kaLyCGXQvXHjysgToNW6gjsK0WpRWj2qeXNzj6tZM7ijkF27zA4fqWFN2nayxi2vb0BfVXLP57iV5KpdOmFduxY9z8LUvF/z1mrA+eet2/bvN2t2Y5ekmqdX3vkWJVnnq+W8tRCK5qm/j7bPivDzrIqgu2PH6DYWi1ZD1e+mlSn19yxqnrpf++C1jBtcj+1adRsE91S97KMH7FRkm2zT+oqbQyxaFlq/v+ah56KoVbh1v56Pi1cau4s9k2meXmnmW1rJPN+cE0fcPqh5FndsKA0tg66/f79+qRV0z5//Zqm2Z9G20qCIP68/HtW/oZ3bv6vXqMCTHUdXr1x2x5uzJw6637+0q+dr3vp7a1FCPT9+3j7eqN04uebplXe+RUnm+WqeZ47ud3+f9hU89Pt5jh+fxkH3rsgW/+qrr7rguzhHIs/Wvsiz1TxytNcTVbMir6whciDyKqd5t47sVek073Q3ceJENyrDggUL3D5YnAuRqFvboQ7iXSOv8toPU9HlSNSt1yTNU/ub9jukHy0Trf1PH8MsJ/IuQvv20qVLg1ti0/au/Vu0fzcoKupOMZq39nctBa79PV3mne60/Lv273i9vocq6NaLgj/IFUcvGnPmzLFhw4a5Jytddg4FRJq330h4UUgPOgBoVAa9sdM+WBy96dV2qDfHzz77rNsPU5EPUjRP7W/a75B+mjRp4vY/fQwz/yZS+29xtL1r/xbt3wq804Hmrf1dwZf293SZd7rzSUy92YoLBd2p5g9/+MO1jh07XvvFL35x7eTJk8Gtqe/ll1++1rhx47SbN5LL3r17rz3xxBNuH1y4cGFwa+rRPubnqdccIB18+OGH14YPH+7Ghg0bgltTn+bdt2/fa4888khazRvxRfcSAAAAIMEIugEAAIAEI+gGAAAAEoygGwBSRVaW2fLlupo82vMKAJA0CLoBIFUo0J4/30zdJYK2bgCA5EDQDQBh5zPcCxZEl85T8K1VigAASYOgGwDCzme4tW7x9u3BjQCAZELQDQBhl5trdvSo2eHDZufPBzcCAJIJQTcAAACQYATdAJBqDhyI1ndr6HMAQJUj6AaAVKPOJepgQhcTAEgaBN0AkGquXDE7e9YsJ8fs8uXgRgBAVSLoBgAAABKMoBsAUpUvM1E7QVaoBIAqRdANAKlq/36zN98k6AaAJEDQDQAlWLp0qU2ePLnAmDp1qq1du9aysrJs3rx5193/0ksv2a5du4LvAABIdwTdAFCCNWvW2CuvvFJgzJ4927Zt22ZnzpyxDz744Lr7586dawdo1wcACBB0AwAAAAkWyqD7woULduTIEdu3b1/Mcfz4cbt8+bKdPn3aMjMzr7v/1KlTwXcKF8370KFD183HD53mvnr1apHz1u1APGgfKrx9+aHsbk5OjtsHjx49et392ne1LaeqjIwMa9GihbVt29bq1KkT3FrFzp2zyItHdKl4WgiiGNpvdQwtvN/64fffoo5H/vgbNkW9Xvmheefm5kZ2pXMx5+2Pv0Bxql2LCD4Pje3bt9uiRYvcx1hUR7lx40br0KGD9evXz2rVqhXcEzV27Fg3wkbzVe2oAupYtm7d6ubdtWvXmPOeMGGCjRo1KvgfUH7a/zRiUcCt7VAHqUGDBrn9ML8ePXq4/U8fw2L69On2wgsvBP8r3o033ujmd88997j5t27dOrgngSLPd+SXNHvrreCGQiK/U+RFwSK/lF4IzJo3D+4AClLQrH171apVwS0Fab/W/i3avps1a+Y+94YNG+a2/+Yh28Y0bx1f169fH9xSkOatazgaNGjgjq+F561jq+Zdr1694BYgBgXdYbN69epr3//+96+1atXqWkZGht40lGo0btz4WseOHa+9/PLLwXcKF837/vvvv9aiRYtyzfv1118PvhNQMdqHtE1p24q1zcUa2ma1z2rf1bYcJmWZb9++fa8tXLgw+MpKsmHDtWuPPKIMSvFDj9m7N/gi4Hpff/31tf/5P//ntXbt2l2rW7duZLOJvZ0XHvXr13dfo6/V9wgb/c7/5b/8l2tt2rQp17wjb8qvZWdnB98NiK3GdKVwQqZmzZoue9SkSRPbu3dvqcsmRo8ebZMmTbIhQ4ZUTvYpzjTvyAuCeyetU/hlnffgwYPdaW+golQ2oUy1TjHv2LEjuLV4kQOT/ehHP8rLcitjFBZlma9eW0aMGFG5mfwjR8xWrLDILxfcUAT9TpHXg8iLZ3ADUFD16tXdsbV9+/Z2+PBhl+EtDWW9J06c6M7wdOrU6bozrclO827atKm1bNnSZb3LOu+7777bPWc1atQI7gGuF8qabh3UFEhqFD7FUxydEtLOoY9hpHk//PDDdtddd5Vr3j179gxuASqmPPuStlm/34btTW/YXzvyZGerDs1MJWq5ucGNwLf0ZlglIuPGjbuuNKw4KmvU1+hrw/SG2tPvrGOrjrHlmbeC77C90UDlo3sJAKQLXQcza5aK8nU1bHAjAKAyEHQDQFgpW62stcpKlMUuiU6Zf/CBmS4WU0cTAEClIegGgLBStlpZ69mzo1lsAEDSIugGgDioXbu23XrrrTZw4MDKa5embLWy1rqIspQXfgEAqgZBNwDEgTo+jB8/3nUKClMPcgBA5Qh10K2DnLJKyi7Vr18/uPV6alU2dOhQ18YoFSiLpnl3797dZdeK0rFjRxs+fHjKzBvJR9uW9i3tY0XRvukzwNpnw6y4+aqtYK9evSo3011WN9xgNnhwtHVgsqyWiaTkt+cBAwZENpvIdlME3afH6I1m0qzAWgHqYuLn3bhx4+DW67Vq1cq14U2VeaNyhLJPt6cNvXPnzu6jVqE8efJkcE9BWinq2WefdS19wn7QF/XpVpsiLTmrVSrPnj0b3FOQ+iFPnjzZtTlLhXkj+Wi76tatm+tru23btuDWgtR+64c//KHLAvv9NayKm6/uUzvESs1yq6ZbpSWbNgU3lOC228x+/nOzESPUg1TN/4M7gIK0LkTbtm1de0+tC/H1118H9xR0W2Sb+ulPf+qOs3qsvi7M1PZP/bY1l507d9o333wT3FOQWiPqrJZ68qfCvFE5UiLTrXelxfUF1Q6kHSTVMt0lvcPWfPWCQKYbiaJtS/uW9rGi+MxRqmS6S5pvpdKS0wqkH3mk4Bg6NJrV1tDn/vYxY8zuuotMN0qkY0tpztyU9ngUFqV9vVKgrYX2yHSjLKjpBoCwUlAwdqyZTljmHxMn6h1CdOhzf/v48dGvAQBUOoJuAAgrrYCn1fO0Umb+MWRIdLl3DX3ub7/ppujXAAAqHUE3AKSarl3Nnn02OvQ5AKDKEXQDQAWoO4s6mowbN85dNJoUVGPaunV0UG8KAEmBoBsAKkAXW/lOQZXauQQAECqhbhnonTt3zq5du2ZXrlyxrKwsu3Tpkrv9lltusXvvvddGjhzp+gRnZGS421NFTk6OVa9e3Y1Y87777rsJApBwal155swZ1zP+/Pnzea07lQFWpw9ti+pn26ZNG3d72BWerzzwwAN25513ptxrDJCbm2sXL15023Z2dnZei1r1qb7rrrvccaZ///7F9rQOI81b+7daAepY6+d94403uvUv9LrWp08f18IXKK2UCLrVskgHdQXen3/+uZ0+fdrdrtO9mp5a/9StW9eqVavmbk8Valmk09pFzVv9uekdikTTNnbzzTfbd7/7Xdc3fsuWLe52bZ/PP/+8Pfnkk24xmRo1arjbw67wfNW/WK05tb8BqUYt9BRcqsf+hg0b8vp1a3ufNm2ajRkzxpo1a+aSP6lE81YP8pYtW9rWrVvz5q1Ewi9/+Uu77777rGHDhikXVyCxUmIv0Ttwbfx6x5l/x1cmSu++UzHgFjXxb9SoUZHzpncoKoP2Le1j2ua0TXraJpXt1r6ZShngouYLpCK9Wfb7cf4kjj7XbbovVd5Q56c5KfDWyD/vouINoDTYYgAAAIAEI+gGgHLQGSUtfa3ymZ49ewa3JpkDB8wWLDB7+22zY8eCGwEAVYGgGwDKQSUmEyZMcHWtgwYNCm5NMrt2mb36qtnrr5sdPBjcCACoCgTdAAAAQIIRdAMAAAAJlhItA/NTmzJ17Thy5IhraaRWXunQxUPzlgMHDrgWiekybyQXXeWvbfHChQtujB49ml7xVa1Jk+iqlNu3W+SF0ax9e1apRLmok4cWgzp16pT7qP3bH3tSmeaqobiifWT/0fE1HeaN+EupoFs7wZAhQ9ziFZs3b3YXN91xxx0pH3z6eWvBjo0bN7reoukwbyQXBdwKsLXf7d+/37755ht3oWG3bt2CR6DSKeBW//BIkGSzZ0cvrIwEDO52oAwUcCuRpXUxdu7c6dplaoEYLZKTyhRs+3mrT3mLFi3cQlipPm8kRsplukX9NfVuVBc3derUqUCPzVSmeWq+WrQjneaN5KI+1jpAK/jWWRctnIEqpiz3ihXRYHv0aIJulJt6UysAVSDaq1cv16c7HWjeCrgHDBjgkgvpMm/EV7VrWs4wxWj5Vp3aVhN7ZXvTZcUoLdWreSsDkU7zRnLRmSZth5cvX3YdPlJpYZzQeucds5kzzTp0MJsxI/oRKAft19q/Rft3Ki6ME4vmrWXhFXzr+Jou80Z8pWSme/Xq1fa73/3OsrOzrWvXrmlz0F++fLn95je/sXPnzqXVvJFcTpw4YX/+85/tL3/5izsF26ZNm+AeVBmVmnXpYjZkiEVeHLScbXAHUDYqLfn3f/93W7t2rTujqpVZ04Hmrbhix44d1q5du7SZN+IrJbuX6GKHNWvW2K5du9y703ShiyhXrVqVdvNGclEWbPv27W4fPH78eHArqpQy2w8/bHbXXSrODW4Eyk4XUeraIY2cnJzg1tSnea9bt862bNmSVvNGfKVkplvlFXoHrtor1Xany2kgrZCnDLdq2dNp3kguOv2qi49U79m3b18yQkAK8R2KVNPdvXt3V2KSDjRvnbVTowIdZ9Nl3oivlKzpBgAAAJIJi+MAAAAACUbQDQAAACQYQTcAAACQYNR0Ayi1Y8eO2cGDB4P/lY0uPFKrLS2cExbpNl8AQOIQdAMotQULFtirr74a/K9sdMX/s88+67oehEW6zRcAkDihCrrVG1M9qNUvszTUNk+tA9W3e9++fdf1rtZBUY8BUDqzZs2y5557zjp27Oj2rfy0f2n//Oabb4JborRcsh47ZMiQ0Afdeh3Zv3+/+1wtOfUaovZp+el1So9T20TNd8SIEW7++n+VU9/0yN/ILQOvv58WzQEAVIpQBd06oOsAqKb8pTFu3DibOHGiLV261ObMmXNdQ3sdEPUYAKXjg+4nnnjC7Vv5af/S/vn+++8Ht0R16dLFPXb06NEuSE2K4LOUtOCUXnc8vY68+eab7nO9mdBriOaVnx6vx+l1SvNV0K35J8WbjVWrLPJHssgvY5FfyiLvGII7AACJFsoLKf2KWCtXriwwtAqeVsMrirJPepw+Aig/ZW4VTOYfw4YNuy7rK6pp1kI5AwcODFXALToTln+O+bP7WiyjR48eBe7X0DybN29uZ8+etU2bNrnXqtKenUs4ZbrXrLHIi6WWDg1uBABUhlAF3booSZklDWWQCtNKjNOmTXPZOI1HH33UXcw0fPhwmzFjRl5GSh91v24HAAAAEi1UQbcCaAXbqg1V4Dx06FBr1KhRcG/09LZOB1+9etW6devmgnTVXZ4+fdoyMzNdFu6RRx5x2Sid6m3RokXwlcklOzvbPv30U1u0aFGxY/369Xbu3Lngq8x2795t77zzTszHauh+oCJUKqJ9SBle79KlS7Z582a37Wk/87S/6o3wyJEj3fLJAACksxrTI4LPQ6NevXp5taFffPGFnThxwt2uYHXLli1WvXp1dzq7YcOG7vb33nvPZbY7d+5skyZNcvclcxsvXailmlCNFStWFDlUjh9rnsuWLYv5eF381qdPH/dYoDyaNWtmAwYMKLAP6Y3f/Pnz7Te/+Y199dVXeSVeelP79NNP2w9+8ANXllEnBS7a036kEjXRfPTmv3Ctti7c1uN27Njh/u9LcfKXplQZlZUsXRq9iDLyO7kLKgEAlSKUQXetWrXcwV/BtwJPZbMVcJ88edKOHz9uV65ccdm3nTt3unpKZd9Uf3nnnXe6g1+y981VEKMOEHozoQO3MtT6vx+af/fu3V0W8dZbb3XPg+hgr+dAj1HmUUGPAgJl+DV0hkCZSqC8dPGgtqX8+9D58+ft7bffdkMBtx6jbfP++++3hx56yHr37p0SAbfkD7r15r5x48aWlZXlXmf80IWUuk9n27T/ab/zdd5VjqAbAKpMqPt06wCvA96SJUtchnfbtm3udh30lQVXoC2+i4kuigrDhVy5ubnuwqt169bZiy++6EpN8rv33ntt8uTJLrDJP0+V0ejrfv/737vn48knn3SP8/RGJX85DhAP2ub03v2VV15x/1dZl7a78ePH5705ThWa5wsvvOA+r1atmptf4TfxOgun1xtdWCp6w6H9NCneeCxaZJE/TjTgVr4lGbLvAJAmQr0MvA5ibdu2dVkkBdaq8VbAra4BWkVOZRoa6h8cloBblMlu2bKlO4U/duxYu++++6xVq1bBvWpAcNwF5NsLdWtRQN2hQwcXCCjTpvnqlLYfBNyIN2V2582bZ1u3bg1uiXb1UFZX+1wqBdyFFe5eotchXU+iM2xr1651pW96jdKZgVTJ9AMAyi/UQbenA59qtRWghiWwLg0drJUx08hfD6pge/bs2e7iyKRpRYa0pHKLmTNn2hq1oUszCqT1mqPst4ay+3otUpmXaty1j9KeFADgpUTQrWyaMt7KrvlSi1SgjLevx86fKVMN7eHDh13GO/8qmxs2bLDXXnvNlZmotES1pEAiKMhWCZMWnvr666/tzJkzbntV6ZO2vZ49ewaP/NaxY8fcCo8a6jIUdjqbpNccfyZJc/7+979v3/ve99zFzerR/cc//jFl5gsAqJiUCLoRpUBIWUdlv5V10ylvIBGU4VZ2Vx89n/nVtle4o4coA+y78qRiBlhn2VTHrrNuPuOdyvMFAJRNSgTd6u4xd+5cl01Sbbeybb6NnvgMcFhPgas2VvN67LHHCnRAUB3tG2+84TKOGsok6jF33HGH61xCHSkSRdcSqGPQxYsXXYZbnYF+9rOfubpmXTug2wpTVyH10tfIf4YmVSjzrWtK9NqTkZHh6rt1fUlSzVfdi5580mzUKF0EEtwIAKgMKRF0+xpnZZNU/1y4tttngPNn5cJEp659bbdKTTxdxKZg29eU+gy3egcTcKOyaFvTNjdlypSYGW4kES1qpO4lkdfIyItkcCMAoDKEOuhWkK1g+7PPPrO7777bHnzwQZcVvv322+1//I//4bp+1K5d27XgU52z6k8LnxIPA9Wpqy2Zupn8t//231zdqLqZqBe5aml9UD5q1CjX9UQrAaqdGRBvegNbeB/StqZtTj2rY2W4/YWFuvBXJU+FLwxGJcrIiGa41VWmOtWFAFCZUiLoVsZX2W2f4Va2LVbGV4taqMdumDPeqhdV3Wj+jHdR8wXiTUG39iG/QExpEHQDABDSFSk9Bd3KXivQ1sE8fyAqChAUYKvutDB9rQJUZcbDRuU0mpdWnhQF3Zp/KrVLRHLSPvX+++8H//uWapa1EqO2y1hDfeV1xkZvDMMUcGu+Wmwq/1zU+9/TvP3+6If+r9ci7ZN+aB9l/wSA9BaqFSl1IZba5fmLklatWmVTp051C8KonnTAgAEukNb9utDrN7/5javlVmlJLL/+9a/dxV/6GpWhhIUyhnqvpJZk8sQTT7j/kz1EoumCZO1z5aHl4GfMmJG3UmMYlGe+mqdej8aMGRPcAgBAyIJurTK5cOFCl1ETdSvRaW51S1BPah3klEnT/cqA//3vf3eZKtV0x6KOC6r/1tcMHz48uDX5EXSjqqgTUFlKS/JTRx3tZ2E6u1Se+Wqeej3qok4hAAAEQhV0b9682WWdlOGOZcKECS7DpPuV4c7MzAzuKZou/tLXPPPMM8EtyY+gG0CFKBFx4YKu0jarW1dXwwZ3AAASJVRBt/pQK+tU1OpuWhFOGSbdrwx3UWUl+amsRF/Tv3//4JbkR9ANoELWrjVbutSsa1ezRx+NBt4AgIQKVdCd7lSnnpWVZUuWLHH9ubdt2+Zu14I46l7iT9ur3EYXbWmxDgC4zpw5FnmnbjZihEVeTOjZDQCVgKgsRHyLRLVfUxs2r/AiOapnV4AOAACA5EDQHSJacVKt1/bs2eOy2R07dnRD3Vp0u29ZpgtJfYcXAAAAVD3KS0JE2e21a9e6EpPiqLZdfYFjrQ4IAJSXAEDlI+gGgHRD0A0AlY7yEgAAACDBCLoBIN00a6Y6NLMOHcxq1AhuBAAkEuUlAJButHDY9u1mzZtr3XqzjIzgDgBAohB0AwAAAAlGeQkAAACQYATdAAAAQIIRdAMAAAAJRtANAAAAJBhBNwAAAJBgBN0AAABAghF0AwAAAAlGn24ASFe7dpmtXWvWtatZv35mtWoFdwAA4o1MNwCkq40bzWbONFu61OzCheBGAEAiEHQDQLrKyYkuCZ+VZXb1anAjACARCLoBAACABKOmGwDSleq5Fy40y8gwa9LEbMAAs+HDgzsBAPFEphsA0pUunpwyJRpwz5oVre0GACQEQTcApCt1K2ncOHIkiBwKTp82O38+uAMAEG8E3QAAAECCEXQDAAAACUbQDQAAACQY3UsAIN1t2GC2Zo1Zz550LwGABCHoBgAAABKM8hIAAAAgwQi6AQAAgAQj6AYAAAASjKAbAAAASDCCbgAAACDBCLoBAFFaCn7fPrNTp4IbAADxQtANAIhaudJs8mSzpUuDGwAA8ULQDQCI2r3b7K23zLZvD24AAMQLQTcAAACQYATdAAAAQIIRdAMAAAAJRtANAAAAJBhBNwAAAJBgBN0AAABAghF0AwAAAAlG0A0AAAAkGEE3AAAAkGAE3QCAqJ49zZ54wqxfv+AGAEC8VLsWEXwOAEhnp0+bZWWZNWkSHQCAuCHoBgAAABKM8hIAAAAgwQi6AQAAgAQj6AYAAAASjKAbAAAASDCCbgAAACDBCLoBAAWtWGE2fXr0IwAgLgi6AQAFKdh+4QWCbgCII4JuAAAAIMEIugEAAIAEI+gGAAAAEoygGwAAAEgwgm4AAAAgwQi6AQAFNWli1rFj9PPMTLPTp6OfAwDKrdq1iOBzAADMNm6Mjn37zI4eNRs71mzUqOBOAEB5kOkGABTUr5/ZxInRjPeqVWYHDgR3AADKi0w3ACA2Zbu3bo0G4T17BjcCAMqDoBsAAABIMMpLAAAAgAQj6AYAAAASjKAbAAAASDCCbgAAACDBCLoBAACABCPoBgAAABKMoBsAAABIMIJuAAAAIMEIugEAAIAEI+gGAAAAEoygGwAAAEiwatcigs8BAMXZuDE68mvQwKxfP7OuXYMbymjXruj3zMkJbihE31sj7Pw8W7eOzkfPm2zdGr29Z8/o7fmf41q1orfpvuIcOfLt1+jxubnR/2dlRW/T3yb/zyzM/0w9RgMAEqDG9IjgcwBAcebPN5s502zFim+HgsZOnUoODIuyfLnZrFlmixcX/L5+KEgdMiR4cIj5eerNhQLbRo2it7/9ttm//ItZ06bReeZ/jj/7zKx9e7P+/aOPLcqWLWazZ0cD5x49zA4eNHv1VbM//zn6fapXL/gzC/M/M1WeawBJifISACgtBde3325Wr57Z/v3RceBA0Vnq0vCBXsuWZocOfft9/Th1KnhgSGVmRt9QKNPdq1c0KK5TJ7gzQkH1sGHRec6ZEw2S/dz1tadPBw8sRpMm0aBaz+WaNWZLlkQDcf99jh83u3w5eHAM+tmp8FwDSGoE3QBQWqNHm82YYTZ8eHBDHAwaZDZtmtmjj5rVrRvcmEI2bzZ76aVo0P3ss2YTJpg1axbcGaHnUs+pTJ5stnRp9POyUPmIvrf+Pvr611+PZrsBIIkQdANAaal8Yd68aEmJ6o3vvdfsySfLX1oi+j4qe1DAXa1acGPE4MFmv/hFYsod9Pu/8YbZsmVmFy8GN8aZzgDMnWu2aZPZd79rdtddZm3bRs8SqNzDq13brHHj6OfZ2eX7fWrWjNZrK4N+4YLZuXNmV68Gd5aCnmM91/Laa2YbNkQ/B4A4IugGgNJS6YNqf1XCoABv7NhodjYRF9+NGGGmS270Md705kH11YsWRYPURNi379s6az1PGioDSUb+uRb/9wWAOCPoBoDSUoCqGmN1x1BWWllbZamVrS5MHTVUo6yhALSsFNQrSM1f/1yYapAVOCu43b49uLEYeoyC7T/9KVovrYxwSQ2sNGeVbCgYVQBdEs1Vc/79782++ir6XOl5KpzhLsl995lNmVKxTH/37tEMdkkBv3+upbzZdgAoAUE3ACRCRYPu0ihv0P3WW9HgsjTKG3S/+abZN98EN5aD6rMrGnTrok2diUjmLDuAtEHQDQCFqbxAQaZKDvIPlZeURMG2WtApGFbZgoa+zn8P3afHVIQPthXcqqOKgkoFxP5nFA70FWwrMNfPzt+hQ1+jeSqojlVmot9bQboCVgWv+p7+Z+j2/IF+4TcZHTuaPf202fjx0a4iAJDmCLoBoDAfdL/wQsGxcmXwgGIUFXT775HIoNv/jKKC7v/8z4IZbl3k+L//d9mCbv8zigq6leFW+z39XpMmEXQDQICgGwC8tWvNpk41W7jQ7Px5szvvNHv55Wh9cUm0+qFa1am7idoAPv986Vap1M988cWCP/PXv46WVxSm+/U4Lfyi761Wg/pZZfWd75j9P/9PdG4ahdsVKghXkC3xbpFYmN7I6DnXzywvtSPUc6KhzyvCP8f6nfS3AYA4IegGAF3spwsk160z++1vv+1OooVwFHwWrivWfWpzpwso1ZpOFySqRd5f/xptw6cWgo8/Hl34pSS+fd9HH0V/D62++Mwz1/9MBYNHj0a//4IF0e9d3naF+hp9reamoaBarft0AaGy6Mpwv/JK9LH6XUpaEbIi1J5Pbfo+/TT6f99CUB9LS8+9npO//CXan9u3EKxfP3KUK+NhTn8D/S30O+lvAwBxQtANACrNULmESjZUZqGAVxfxxco2K+D2F/mpVaAv9ShcbhFv/mLGRLaz0/dWvbaC7qri2/dV9AJKX9rCBZQAkgRBNwD4bPMHHxTMNscqq1AGVrcrqFPdsrKsWnb8D38w27MneFDElSvR5eE1tAR5jRrfZl/1eWnpTYACe2W4fd9rz2fZz5wxu3QpmtVVaz79HGV7S0sZbtV6f/JJNMPts86iloLKsut+PTdqlahSFLVKzMgIHpSP5qY56ncoyzw9BdvKvlcku96lS/RMw0MPRX9PAEgCBN0AUB4KRFW/rXrsWLW/KnPIX2esGmzVeT/1lFm7dsGDSsHXV8e6iFN15PodtMy6llvX99X315Lopakn93xdtWqZCytc46wl3LWUu+rJe/cOHpSPX5JdoyzzBIAUR9ANIH35Wuzjx6PZaGVob7wxGliWVAusrO+qVdE64t27gxsjdLtqr3fujJZrqOREJSkqRRk3Lrocur5/aSmzrY4g27YFN0Tod9XvrGBedehffBH9fXv1MnvwwWj5izqGKEuuriL6ffR7KUOtQLh584KZcGX6Fbx/9llwQ0AZdmXv16+PZsH1c1W6oe+vuXTo8O18Dx2K/jz9XN2vUZZ5AkCKI+gGkL4UEPtabgWYCox9LbcC5fIo3DLQ97WeODF+rfN8HblvGeh/hkpeFBR7avGnx/g2hWVdLCZ/y0D/M/T1+Ze99/NV6Uv+NoUAgAIIugGkLy2Frq4XH39sdvZstDRCpRNqw6fOJOpookBSQW5JVL/cokW0hljZYQ3VJyvY1iic+VWtd/4se8OGJWfZVU/dtGk0U62v3bIl+jv7n/Hww9Hss6eAWOUpH35odvJk9D5lqIcNi9ZcF0XdQ7S4jeatkpK2bb/9Gfr6/KUrmod+D2XcS/M8eXpu9fyrREa16eXhs+yaZ6w+46Wl39v/nf1zrOequOcIAMqIoBsAiqJaZ2V2S9NDWsGy6qmVGdYoqU+378+tsg4Fnro4Uz2xC/fMzk+3637/M8rbp7skeoPgf0ZJfbp9HXlp+5J7+evIVTdeHqqbV2/0ivbn9nXz+uifY807Ec8tgLRF0A0AhR07Fr0wUf2a33rLbMeO6O2tWkV7XCvDqvsVLHvqGjJ4cLR0Q2PkyGhGWplgBYQa+YNLZXnVkUR9qnW7Om6MGRMtQVHZi7K3halbiC5e9D9j1KhoRlZfv3dv9PfMv+JkUfR7q45bv4O6rBSmMhT/M/Q76XfT4/R4fV3+eSsrrnn7+ZaW6uDfeSeaJVemvzw0V3Va0ZmKEyeCG8tBz7f/O/vnWPPOf9YAACqIoBsACvPLwBfOcKtGWxlRlSHo/vzt+4ri66o1YgXShfmfXZZe2fnrqkvTK7xwX/LS0ON8P/LSzBsAUABBNwB4Cl7VkeTLL6OZ08JlD7q4UjXbqkFWDXjnztEsrzLgCkqVtVWwnH+o1ln118p4x8oqe3pM/p/tg2FdKKnyDpVxKCOsjHnhn6Fs7/793/brLorqxxXUq9uJaqHVvUV9uLW6peq8ldEWvVEo/DP+8Y9onbpqsZXpLys9t/rZ/vtpHrEy3P5n6/koTM+J3lT476HnVnMqTLfpPv09SvumQlTHruehNCuJAkAZ1ZgeEXwOAOlFAZyy2b4kQ4GxyidatoyuZqjgOn8bPWW4FSyq/OKHP4xmvtWmTwGlvpfa5qlW2weFGvoaPU510ipX0AWaomyx7vc/W8GsgkT/swcOjHYN0VC3EH1v3a+AUi388v8MBai6aFMXUqquWqUu4gNYBeSiIFutDHWBoEpHFGDq5+lnaB4KUDVf/c7+9/NDQax+J11IqfkXvshQz4E/M6D56s1CfnpDoUy8FhLS99McNBcF/fn5n62LNwsvca/HK6P/+99Hv4faGBYu2xHNU7drPn36lHxBpL6Xasz1nPz859HngkV1AMQZQTeA9KUgTsGsapEVJOqjOof4AFaZWGWEdZ+GglNlu9Vr+4EHvv0aBYoK8Hywm58eo4BbgbMPuEVBqn6+/9m+a4n/2QqGRT9T9+v30JuCWMGg6sBV362vzf876PfSz9HvrO+h76n+3Ppd1M9bt+ln6nvqDYGCVf0c/czC9D00ZwXUsYLYkoJuBcEKpjUH8T9Tj8s//M/WRYyFg259rb6Hvpfo+dScCn8P3ab79P31fYoKuvVmxb+B2bQpGnT/+McE3AASotq1iOBzAEgvCnp9RjQ/lRcoeFMg6QM8T0Gr7vMlCPpaZZT12Fh80Fw4kNXj9XVF/ezCy7jr94hVciEKKvU1hS9kVNCtn6GP+SlI1+ML9yLX9y88X0+/j7LoRfUaVzCsendRLkeBd35Fzbco+lmFyzxKeq4L0/Oh71N4np7aRarzib6nzgb86lfR3x0AEoCgGwBQceqeovZ9eiOjTLpKNNQFRN1Nko06p6gc6K9/NXvjDbPu3aMlMyrr0QCABCDoBgBUnOqq1Tdbtd/qcqLsu3p3K6BNNnPnRuvLdWGoyouefjq6mqey+EVl8gGgguheAgCoOC0q48tPfFlO4Qscq5r6jKs3uEpJ2rQx+853zB55JFoKo+w8ATeABCLoBgCkB9Wdqwe6atxVf6767Vj15wCQAATdAID4UbZY3Vo01JElmej3UZ25str5BxluAJWAmm4AQPyow4jvlqIgN3+bxKqmloNawl715uomo3aJAFBJCLoBAACABONtPgAAAJBgBN0AAABAghF0AwAAAAlG0A0AAAAkGEE3AAAAkGAE3QAAAECCEXQDAAAACUbQDQAAACQYQTcAAACQYATdAAAAQIIRdAMAAAAJRtANAAAAJBhBNwAAAJBgBN0AAABAghF0AwAAAAlG0A0AAAAkGEE3AAAAkGAE3QAAAECCEXQDAAAACWX2/wPT0URu48bCPAAAAABJRU5ErkJggg==;imageBackground=none;imageBorder=none;" vertex="1" parent="1">
          <mxGeometry x="60" y="560" width="352.09" height="220" as="geometry" />
        </mxCell>
        <mxCell id="RtyG-etpF97lnTowgnw--36" value="" style="rounded=1;whiteSpace=wrap;html=1;strokeColor=#FF0000;dashed=1;dashPattern=8 8;fillColor=none;strokeWidth=2;" vertex="1" parent="1">
          <mxGeometry x="72.09" y="655" width="110" height="35" as="geometry" />
        </mxCell>
        <mxCell id="RtyG-etpF97lnTowgnw--37" value="" style="rounded=1;whiteSpace=wrap;html=1;strokeColor=#FF0000;dashed=1;dashPattern=8 8;fillColor=none;strokeWidth=2;" vertex="1" parent="1">
          <mxGeometry x="182.09" y="655" width="110" height="35" as="geometry" />
        </mxCell>
        <mxCell id="RtyG-etpF97lnTowgnw--38" value="" style="rounded=1;whiteSpace=wrap;html=1;strokeColor=#FF0000;dashed=1;dashPattern=8 8;fillColor=none;strokeWidth=2;" vertex="1" parent="1">
          <mxGeometry x="302.09" y="655" width="110" height="35" as="geometry" />
        </mxCell>
        <mxCell id="RtyG-etpF97lnTowgnw--39" value="" style="rounded=1;whiteSpace=wrap;html=1;strokeColor=#FF0000;dashed=1;dashPattern=8 8;fillColor=none;strokeWidth=2;" vertex="1" parent="1">
          <mxGeometry x="162.09" y="566" width="110" height="35" as="geometry" />
        </mxCell>
        <mxCell id="RtyG-etpF97lnTowgnw--40" value="" style="endArrow=none;dashed=1;html=1;rounded=0;entryX=0;entryY=1;entryDx=0;entryDy=0;exitX=0.5;exitY=0;exitDx=0;exitDy=0;" edge="1" parent="1" source="RtyG-etpF97lnTowgnw--35" target="RtyG-etpF97lnTowgnw--41">
          <mxGeometry width="50" height="50" relative="1" as="geometry">
            <mxPoint x="250" y="510" as="sourcePoint" />
            <mxPoint x="280" y="480" as="targetPoint" />
          </mxGeometry>
        </mxCell>
        <mxCell id="RtyG-etpF97lnTowgnw--41" value="root" style="text;html=1;align=center;verticalAlign=middle;whiteSpace=wrap;rounded=0;fillColor=#dae8fc;strokeColor=#6c8ebf;" vertex="1" parent="1">
          <mxGeometry x="270" y="490" width="60" height="30" as="geometry" />
        </mxCell>
        <mxCell id="RtyG-etpF97lnTowgnw--42" value="" style="rounded=1;whiteSpace=wrap;html=1;strokeColor=#FF0000;dashed=1;dashPattern=8 8;fillColor=none;strokeWidth=2;" vertex="1" parent="1">
          <mxGeometry x="210" y="480" width="130" height="70" as="geometry" />
        </mxCell>
        <mxCell id="RtyG-etpF97lnTowgnw--43" value="&lt;i&gt;&lt;b&gt;ctx&lt;/b&gt;&lt;/i&gt;" style="text;html=1;align=center;verticalAlign=middle;whiteSpace=wrap;rounded=0;fillColor=#d5e8d4;strokeColor=#82b366;" vertex="1" parent="1">
          <mxGeometry x="342.09000000000003" y="505" width="30" height="20" as="geometry" />
        </mxCell>
        <mxCell id="RtyG-etpF97lnTowgnw--44" value="&lt;i&gt;&lt;b&gt;right_page&lt;/b&gt;&lt;/i&gt;" style="text;html=1;align=center;verticalAlign=middle;whiteSpace=wrap;rounded=0;fillColor=#d5e8d4;strokeColor=#82b366;" vertex="1" parent="1">
          <mxGeometry x="352.09" y="700" width="70" height="20" as="geometry" />
        </mxCell>
        <mxCell id="RtyG-etpF97lnTowgnw--45" value="&lt;i&gt;&lt;b&gt;leaf_page&lt;/b&gt;&lt;/i&gt;" style="text;html=1;align=center;verticalAlign=middle;whiteSpace=wrap;rounded=0;fillColor=#d5e8d4;strokeColor=#82b366;" vertex="1" parent="1">
          <mxGeometry x="232.09" y="700" width="70" height="20" as="geometry" />
        </mxCell>
        <mxCell id="RtyG-etpF97lnTowgnw--46" value="&lt;i&gt;&lt;b&gt;left_page&lt;/b&gt;&lt;/i&gt;" style="text;html=1;align=center;verticalAlign=middle;whiteSpace=wrap;rounded=0;fillColor=#d5e8d4;strokeColor=#82b366;" vertex="1" parent="1">
          <mxGeometry x="112.09" y="700" width="70" height="20" as="geometry" />
        </mxCell>
        <mxCell id="RtyG-etpF97lnTowgnw--47" value="&lt;i&gt;&lt;b&gt;parent_page&lt;/b&gt;&lt;/i&gt;" style="text;html=1;align=center;verticalAlign=middle;whiteSpace=wrap;rounded=0;fillColor=#d5e8d4;strokeColor=#82b366;" vertex="1" parent="1">
          <mxGeometry x="277.09" y="581" width="75" height="20" as="geometry" />
        </mxCell>
        <mxCell id="RtyG-etpF97lnTowgnw--48" value="尝试与右兄弟合并，递归更新父节点" style="text;html=1;align=center;verticalAlign=middle;whiteSpace=wrap;rounded=0;fillColor=#d5e8d4;strokeColor=#82b366;" vertex="1" parent="1">
          <mxGeometry x="560" y="427" width="213" height="30" as="geometry" />
        </mxCell>
        <mxCell id="RtyG-etpF97lnTowgnw--49" value="" style="shape=curlyBracket;whiteSpace=wrap;html=1;rounded=1;labelPosition=left;verticalLabelPosition=middle;align=right;verticalAlign=middle;" vertex="1" parent="1">
          <mxGeometry x="540" y="385" width="20" height="67.5" as="geometry" />
        </mxCell>
        <mxCell id="RtyG-etpF97lnTowgnw--50" value="会影响父节点大小，需要考虑递归删除" style="text;html=1;align=center;verticalAlign=middle;whiteSpace=wrap;rounded=0;" vertex="1" parent="1">
          <mxGeometry x="430" y="403.75" width="120" height="30" as="geometry" />
        </mxCell>
        <mxCell id="RtyG-etpF97lnTowgnw--57" style="edgeStyle=orthogonalEdgeStyle;rounded=0;orthogonalLoop=1;jettySize=auto;html=1;exitX=0;exitY=1;exitDx=0;exitDy=0;entryX=0.029;entryY=0.046;entryDx=0;entryDy=0;entryPerimeter=0;" edge="1" parent="1" source="RtyG-etpF97lnTowgnw--33" target="RtyG-etpF97lnTowgnw--48">
          <mxGeometry relative="1" as="geometry" />
        </mxCell>
      </root>
    </mxGraphModel>
  </diagram>
</mxfile>
